<svg width="24" height="24" viewBox="0 0 32 32" fill="none" xmlns="http://www.w3.org/2000/svg">
<path d="M6.664 28L25.3307 28C26.8013 28 27.9973 26.804 27.9973 25.3334L27.9973 20H25.3307L25.3307 25.3334L6.664 25.3334L6.664 6.66669L25.3307 6.66669V12H27.9973V6.66669C27.9973 5.19603 26.8013 4.00003 25.3307 4.00003L6.664 4.00003C5.19333 4.00003 3.99733 5.19603 3.99733 6.66669L3.99733 25.3334C3.99733 26.804 5.19466 28 6.664 28Z" fill="#54436B"/>
<path d="M17.3333 10.6667L10.6667 16L17.3333 21.3334V17.332L28 17.332L28 14.6654L17.3333 14.6654L17.3333 10.6667Z" fill="#54436B"/>
</svg>
