<svg width="493" height="330" viewBox="0 0 493 330" fill="none" xmlns="http://www.w3.org/2000/svg">
<g clip-path="url(#clip0)">
<path d="M78.1993 143.136C78.3803 143.136 78.3803 141.687 78.1993 141.687C77.9278 141.778 78.0183 143.136 78.1993 143.136Z" fill="#54436B"/>
<path d="M224.914 301.21C226.181 301.21 226.09 293.152 224.733 293.152C223.556 293.062 223.556 301.21 224.914 301.21Z" fill="#54436B"/>
<path opacity="0.33" d="M341.851 214.749C341.398 214.477 340.946 214.115 340.493 213.844V215.564C343.751 215.654 347.191 214.206 350.63 214.115C354.793 213.934 359.047 214.296 363.12 215.202C368.46 216.379 373.076 218.461 377.783 221.268C382.308 223.893 387.286 225.523 391.63 228.601C398.69 233.58 404.935 239.375 412.99 242.815C416.792 244.444 421.589 247.432 425.662 246.979C427.653 246.798 429.553 246.165 431.545 246.436C433.626 246.708 435.437 247.794 437.337 248.428C437.518 248.519 437.518 246.889 437.337 246.617C435.618 244.535 433.445 242.815 431.545 240.914C429.463 238.831 427.743 236.477 425.752 234.395C422.584 231.045 418.059 229.778 413.896 228.058C404.664 224.255 397.966 217.284 389.549 212.123C386.019 209.951 381.855 207.778 377.692 207.687C372.805 207.597 367.827 207.778 362.939 207.868C356.513 207.959 344.566 208.049 340.493 213.844C340.403 214.025 340.312 215.654 340.584 215.564C341.036 215.383 341.579 215.473 342.032 215.654C341.941 215.745 342.032 214.84 341.851 214.749Z" fill="url(#paint0_linear)"/>
<path opacity="0.33" d="M429.101 225.07C428.196 225.07 427.381 224.708 426.748 224.165V225.432C435.618 221.539 445.302 223.531 453.357 228.42C457.883 231.136 462.318 234.214 467.295 236.206C471.73 238.016 476.075 240.551 479.333 235.934C479.695 235.481 479.786 233.49 479.243 233.128C475.803 230.23 471.187 229.597 467.024 228.058C461.684 226.066 456.706 223.621 451.185 222.173C446.388 220.905 441.953 220.272 436.975 220.815C433.626 221.177 429.191 221.72 426.657 224.165C426.476 224.346 426.476 225.342 426.748 225.432C427.472 225.794 428.286 225.975 429.101 225.885C429.191 225.975 429.191 225.07 429.101 225.07Z" fill="url(#paint1_linear)"/>
<path d="M353.707 243.539C357.147 244.082 360.405 245.531 363.482 247.161C365.745 248.428 369.456 251.868 372.171 251.597C372.624 251.597 372.352 249.877 372.171 249.695C368.913 243.992 359.771 241.728 353.707 242C353.345 241.909 353.345 243.449 353.707 243.539Z" fill="url(#paint2_linear)"/>
<path d="M369.908 251.506C364.206 248.7 360.043 256.757 359.409 261.284C359.047 264.091 358.957 267.259 359.862 269.975C361.039 273.416 362.758 272.601 365.654 271.696C366.107 271.514 365.926 269.613 365.654 269.432C364.297 268.346 363.211 267.621 362.125 266.263C360.677 264.453 360.767 263.819 361.672 261.556C363.301 257.391 365.745 254.947 369.818 253.226C370.27 253.045 370.18 251.687 369.908 251.506Z" fill="url(#paint3_linear)"/>
<path opacity="0.33" d="M306.281 243.449C310.716 243.539 315.332 248.066 318.409 250.963C320.31 252.774 322.029 254.947 323.478 257.21C325.378 260.198 325.016 262.823 325.469 266.173C326.102 271.514 328.093 275.951 331.352 280.206C332.981 282.288 334.61 284.461 336.239 286.543C337.144 287.72 337.959 288.988 339.498 288.807C339.95 288.807 339.95 286.905 339.86 286.724C339.769 280.568 338.954 274.774 335.244 269.704C333.343 267.078 330.99 264.724 329.361 261.918C327.912 259.473 327.641 257.119 326.917 254.403C325.831 250.058 322.844 246.165 319.043 243.901C316.146 242.091 309.449 240.28 306.19 242C306.009 242.091 306.009 243.449 306.281 243.449Z" fill="url(#paint4_linear)"/>
<path opacity="0.33" d="M259.759 247.16C258.13 247.342 257.044 246.889 256.049 248.156C254.781 249.695 255.053 253.226 255.053 255.037C255.234 262.642 258.492 269.251 261.389 276.132C262.837 279.572 264.556 283.193 265.461 286.815C265.552 287.267 265.733 289.44 265.824 288.173C265.914 286.453 266.005 287.901 265.461 288.444C264.013 289.984 262.384 290.527 261.841 292.7C261.117 295.597 261.298 298.675 261.841 301.572C261.932 302.296 262.203 305.012 263.289 305.193C270.802 306.461 269.263 285.819 268.72 282.016C267.905 276.041 266.186 270.156 263.38 264.724L259.578 257.663C258.945 256.667 258.402 255.58 257.859 254.584C257.316 252.955 257.225 252.683 257.406 253.77C257.497 254.765 257.678 254.494 257.949 252.955C258.492 251.597 259.126 250.239 259.85 248.971C260.031 248.881 260.121 247.16 259.759 247.16Z" fill="url(#paint5_linear)"/>
<path opacity="0.33" d="M275.96 152.823C270.892 152.551 264.375 150.288 259.85 153.547C254.6 157.259 253.695 164.593 253.062 170.477C252.609 174.914 252.7 179.531 251.252 183.786C249.713 188.132 247.541 192.568 245.459 196.733C243.377 200.897 241.024 204.79 239.123 208.955C237.313 212.848 236.227 216.922 234.689 220.905C233.512 223.984 233.783 228.148 234.326 231.407C234.508 232.494 235.594 237.111 236.68 234.123C238.037 230.593 238.852 227.062 240.391 223.621C242.291 219.276 244.735 215.202 246.817 210.947C250.528 203.432 253.695 195.193 254.781 186.774C255.777 179.169 255.415 171.564 259.94 164.955C263.651 159.613 269.172 154.453 275.87 153.819C276.141 153.819 276.141 152.823 275.96 152.823Z" fill="url(#paint6_linear)"/>
<path opacity="0.33" d="M282.115 119.235C282.387 116.971 282.296 112.897 278.947 113.169C275.146 113.44 273.607 119.597 272.702 122.403C270.711 128.469 267 139.152 272.702 144.313C272.974 144.494 274.241 139.062 272.883 137.975C269.625 135.35 272.521 129.103 273.607 125.663C274.241 123.671 274.965 121.317 276.232 119.687C276.866 118.872 281.3 115.704 281.481 118.782C281.572 119.597 281.934 120.412 282.115 119.235Z" fill="url(#paint7_linear)"/>
<path opacity="0.33" d="M285.373 121.317C284.74 123.761 285.373 126.296 286.278 128.65C286.821 130.008 287.274 131.547 288.089 132.724C288.27 133.177 288.451 133.72 288.632 134.173C289.356 130.28 289.265 129.284 288.27 131.185C287.093 132.543 286.188 134.626 285.645 136.255C284.649 139.424 284.74 143.317 285.283 146.576C285.464 147.663 286.369 152.099 287.636 149.202C288.541 146.938 289.989 145.037 290.713 142.683C291.709 139.514 291.799 135.893 291.528 132.634C291.347 130.461 291.166 127.654 289.718 125.934C288.541 124.486 285.826 123.942 285.645 121.679C285.645 121.86 285.464 120.955 285.373 121.317Z" fill="url(#paint8_linear)"/>
<path opacity="0.33" d="M328.455 155.72C329.723 156.173 332.709 153.728 333.705 153.185C336.058 151.918 338.502 151.012 340.946 149.926C343.389 148.84 345.833 147.663 348.005 146.214C349.725 145.037 351.988 143.407 353.255 141.778C353.707 139.605 355.065 138.337 357.147 137.704C358.142 137.342 359.138 136.979 360.133 136.798C360.314 136.708 360.314 135.531 360.133 135.531C358.957 135.35 357.599 135.44 356.423 135.169C355.065 134.897 354.16 133.72 352.802 133.268C350.63 132.634 348.005 133.268 346.014 134.173C342.937 135.531 339.679 137.342 336.873 139.062C331.171 142.593 327.369 147.3 328.093 154.362C328.093 154.634 328.093 155.63 328.455 155.72Z" fill="url(#paint9_linear)"/>
<path opacity="0.33" d="M299.945 137.613C302.479 137.07 305.195 137.07 307.729 137.342C309.449 137.523 311.078 137.794 312.526 138.7C313.159 139.062 313.703 139.605 314.427 139.786C314.608 139.786 314.608 138.7 314.608 138.609C314.246 135.259 312.164 135.078 309.177 134.988C306.371 134.897 302.389 134.988 299.945 136.436C299.764 136.617 299.855 137.704 299.945 137.613Z" fill="url(#paint10_linear)"/>
<path opacity="0.33" d="M311.621 186.23C315.422 189.942 321.034 191.391 325.831 188.494C330.266 185.778 334.61 181.523 338.049 177.63C338.23 177.449 338.049 176 337.959 176.091C333.705 178.173 330.447 180.436 325.65 180.979C323.658 181.251 321.577 181.613 319.495 181.704C316.78 181.704 314.246 180.708 311.621 180.074C310.806 179.984 310.987 185.597 311.621 186.23Z" fill="url(#paint11_linear)"/>
<path opacity="0.33" d="M288.089 176C287.184 175.095 287.184 174.37 286.097 173.646C285.283 173.103 284.559 172.56 283.744 172.107C282.115 171.111 280.305 170.296 278.495 169.572C275.508 168.305 269.625 167.761 269.353 163.506C269.353 163.325 269.172 162.51 268.991 163.144C267.815 170.025 273.698 179.169 279.49 182.337C282.568 184.058 285.826 183.967 287.636 180.617C288.27 179.531 288.813 176.724 288.089 176Z" fill="url(#paint12_linear)"/>
<path opacity="0.33" d="M261.117 218.461C264.285 220 267.362 221.177 269.625 224.074C271.616 226.519 273.607 228.691 274.965 231.589C276.684 235.21 277.861 241.457 281.481 243.992C283.382 245.259 284.83 243.72 286.912 243.177C289.356 242.543 291.709 242.453 294.062 243.086C295.239 243.449 296.325 244.173 297.501 244.444C298.678 244.716 299.583 244.626 300.85 244.626C303.928 244.807 306.371 246.527 309.539 246.074C309.992 245.984 309.72 244.173 309.539 243.901C307.367 241.457 305.466 241.004 302.66 239.646C299.945 238.379 297.682 236.387 294.967 235.029C292.614 233.942 290.442 233.49 287.908 233.58C285.102 233.671 283.02 232.856 281.029 230.774C278.314 228.058 277.228 224.074 274.331 221.449C272.793 220 271.163 219.366 269.172 219.185C266.367 218.914 263.832 217.827 261.117 216.922C261.027 217.012 260.846 218.28 261.117 218.461Z" fill="url(#paint13_linear)"/>
<path opacity="0.33" d="M348.639 172.198C347.643 173.918 346.557 174.914 345.29 176.453C343.208 179.078 341.579 182.428 340.041 185.325C336.058 193.021 333.705 201.078 328.274 207.959C328.003 208.23 328.003 210.856 328.455 210.765C331.623 210.041 334.882 208.864 337.144 206.329C339.95 203.251 341.398 198.815 343.299 195.193C346.738 188.856 350.721 179.893 348.82 172.469C348.91 172.469 348.729 171.926 348.639 172.198Z" fill="url(#paint14_linear)"/>
<path opacity="0.33" d="M423.308 262.099C424.032 261.556 424.485 260.198 424.938 259.473C425.571 258.206 426.386 257.029 427.381 256.033C429.825 253.589 433.807 253.226 435.618 250.148C435.799 249.877 435.98 248.156 435.527 248.066C434.169 247.613 432.269 248.247 430.911 248.7C429.372 249.152 427.834 250.148 426.748 251.325C424.757 253.498 423.489 256.938 422.946 259.835C422.856 260.016 422.856 262.461 423.308 262.099Z" fill="url(#paint15_linear)"/>
<path opacity="0.33" d="M312.797 290.798C316.146 292.609 321.667 291.161 325.197 290.708C327.731 290.436 330.266 290.617 332.8 290.708C336.692 290.979 338.773 290.708 342.303 288.807C342.665 288.626 342.575 286.996 342.303 286.815C337.144 283.193 331.804 282.198 325.559 283.556C321.034 284.551 317.142 287.811 312.797 289.531C312.526 289.712 312.616 290.708 312.797 290.798Z" fill="url(#paint16_linear)"/>
<path opacity="0.33" d="M263.018 291.342C260.122 287.539 256.23 284.28 251.252 284.099C246.817 284.008 243.015 287.449 241.115 291.342C240.934 291.704 240.843 293.786 241.296 293.877C244.916 294.51 248.265 296.049 252.066 296.23C256.049 296.412 259.216 295.416 263.018 294.691C263.651 294.51 263.289 291.704 263.018 291.342Z" fill="url(#paint17_linear)"/>
<path opacity="0.33" d="M192.783 77.8601C193.598 80.6667 195.408 82.1152 197.037 84.4691C200.024 88.8148 199.028 92.7078 197.58 97.2346C195.679 103.391 194.593 111.086 196.946 117.152C197.852 119.506 199.119 120.321 201.472 119.959C205.726 119.144 209.256 117.243 213.057 115.251C216.406 113.531 219.664 111.811 222.379 109.095C225.457 105.835 227.991 102.214 231.159 99.0453C231.34 98.8642 231.249 97.4156 231.068 97.5062C224.914 99.9506 219.121 103.844 212.785 105.654C209.165 106.741 203.916 107.374 200.567 105.564C200.024 105.292 199.028 104.568 198.485 104.387C198.214 112.082 198.485 114.346 199.209 111.268L199.752 109.366C201.834 102.576 202.377 94.8807 201.11 87.9095C200.748 85.8272 200.205 83.4733 199.028 81.6626C197.671 79.5803 195.317 78.3128 193.507 76.6831C193.417 76.5926 193.326 76.5926 193.326 76.6831C193.145 76.7737 192.964 76.9547 192.783 77.0453C192.602 77.0453 192.693 77.679 192.783 77.8601Z" fill="url(#paint18_linear)"/>
<path opacity="0.33" d="M229.711 84.1975C230.978 85.6461 232.607 86.7325 233.874 88.2716C235.232 89.9917 236.318 91.7119 237.132 93.7037C238.399 96.6008 239.667 99.4979 241.115 102.305C242.563 104.93 243.106 100.675 243.196 99.5885C243.558 96.5103 243.649 92.4362 242.382 89.5391C244.011 98.0494 244.282 99.9506 243.377 95.1522C243.287 94.1564 243.196 93.1605 243.015 92.1646C242.744 90.6255 242.291 89.358 241.658 87.9094C240.934 86.3703 240.119 84.4691 238.942 83.2016C236.951 81.1193 231.973 80.4856 229.62 81.6625C229.258 82.0247 229.439 83.8354 229.711 84.1975Z" fill="url(#paint19_linear)"/>
<path opacity="0.33" d="M89.3318 33.4074C90.8705 37.8436 90.6895 36.8477 89.2413 40.1975C88.2457 42.3704 87.6122 44.5432 87.4311 46.9876C87.0691 51.0617 86.345 61.1111 92.7712 60.749C95.7579 60.5679 98.6542 57.8518 101.188 56.4033C103.723 54.9547 106.347 53.6872 109.063 52.6008C111.778 51.5144 114.674 50.3374 117.118 48.6173C119.924 46.6255 120.648 44 121.643 40.8313C121.824 40.2881 122.096 37.3004 121.372 37.1193C119.924 36.9383 119.2 36.6667 117.842 37.1193C116.756 37.4815 115.67 38.5679 114.674 39.1111C112.049 40.5597 109.334 41.6461 106.528 42.642C103.813 43.7284 101.279 45.4486 98.4732 46.1728C97.0251 46.6255 95.6674 46.535 94.2193 46.3539C92.8617 46.1728 91.2325 45.1769 90.0559 45.0864C88.9698 55.8601 89.1508 59.1193 90.5989 54.9547C90.6895 54.6831 90.8705 54.4115 90.961 54.1399C91.504 52.963 92.0471 51.786 92.4996 50.609C93.4952 47.8025 93.7667 44.7243 93.8573 41.7366C93.9478 38.8395 94.4908 28.5185 89.6034 28.7901C88.5173 28.9712 89.1508 32.9547 89.3318 33.4074Z" fill="url(#paint20_linear)"/>
<path opacity="0.33" d="M90.8705 19.3745C92.7712 19.6461 94.6719 19.8272 96.663 20.0083C98.5637 20.1893 100.736 20.8231 102.456 19.7366C102.818 19.5556 102.727 18.107 102.456 17.9259C100.736 16.9301 98.6542 17.5638 96.663 17.6543C94.7624 17.8354 92.8617 18.0165 90.8705 18.2881C90.6895 18.3786 90.78 19.3745 90.8705 19.3745Z" fill="url(#paint21_linear)"/>
<path opacity="0.33" d="M124.63 136.255C127.436 136.708 131.147 132 132.867 130.189C135.672 127.202 138.659 124.123 140.831 120.683C140.922 120.502 140.922 118.963 140.741 119.054C137.663 120.412 135.401 124.123 133.229 126.568C131.961 128.016 130.604 129.556 129.156 130.914C127.708 132.272 125.807 133.358 124.54 134.897C124.359 135.169 124.359 136.255 124.63 136.255Z" fill="url(#paint22_linear)"/>
<path opacity="0.33" d="M94.1288 175.366C98.4733 176 102.456 176.543 106.347 178.535C110.33 180.527 114.131 182.971 118.385 184.329C122.73 185.687 127.345 186.23 131.78 186.864C137.03 187.588 141.646 187.407 146.262 184.51C146.714 184.239 146.714 182.066 146.262 181.794C138.025 176.815 127.979 181.16 118.928 178.988C114.855 177.992 111.325 175.909 107.524 174.37C102.999 172.469 98.8353 172.741 94.0383 173.465C93.7668 173.465 93.8573 175.276 94.1288 175.366Z" fill="url(#paint23_linear)"/>
<path opacity="0.33" d="M140.65 164.321C142.008 166.132 147.076 165.86 148.977 165.136C152.326 163.868 154.588 159.794 156.399 156.897C157.394 155.358 158.299 153.728 159.385 152.28C160.472 150.831 161.286 149.926 161.829 148.206C162.553 145.671 162.825 143.226 164.725 141.235C169.432 136.074 176.13 133.72 179.931 127.654C180.112 127.383 180.112 125.119 179.84 125.3C176.673 126.296 174.5 128.65 171.966 130.732C170.518 132 169.07 133.177 167.531 134.354C165.359 136.165 164.182 138.428 160.834 136.165C160.562 135.802 160.291 135.802 160.019 136.165C156.58 140.329 153.864 145.218 150.878 149.745C148.977 152.642 147.71 155.811 145.9 158.708C145.085 159.975 144.271 161.605 142.913 162.329C142.098 162.782 141.374 162.691 140.65 163.235C140.469 163.325 140.56 164.14 140.65 164.321Z" fill="url(#paint24_linear)"/>
<path opacity="0.33" d="M90.8706 77.8601C90.6896 77.7695 90.5086 77.7696 90.3275 77.679C90.3275 77.679 90.237 77.679 90.237 77.7695C86.1641 83.0206 86.4357 91.2593 84.716 97.4156C82.0007 107.284 79.195 117.062 77.3848 127.111C77.2943 127.383 77.5658 129.193 77.7468 128.741C80.9146 120.593 84.354 112.626 86.5262 104.115C88.6079 95.8765 89.6035 87.1852 91.1421 78.856C91.0516 78.6749 91.1421 77.8601 90.8706 77.8601Z" fill="url(#paint25_linear)"/>
<path opacity="0.33" d="M75.2125 174.823C76.3892 174.733 76.0271 172.56 75.9366 171.835C75.7556 168.848 74.8505 166.946 72.9498 164.774C72.8593 164.683 72.6783 164.683 72.5878 164.593C67.9719 166.494 67.7003 174.099 67.5193 178.263C67.1573 184.601 66.8858 190.848 64.9851 197.004C63.2654 202.798 60.9122 208.593 58.559 214.115C56.0247 220.272 52.3139 224.346 47.1549 228.329C39.0091 234.667 29.0532 240.914 27.243 251.778C26.0664 259.202 27.8766 269.342 21.8125 275.136C20.9074 276.041 20.9074 281.292 21.9935 282.107C23.0796 282.831 24.2562 284.642 25.6139 284.28C26.9715 284.008 27.6051 281.473 27.9671 280.387C29.4152 275.679 29.5057 270.519 29.7773 265.72C30.0488 261.103 30.8634 258.839 34.0312 255.309C38.5566 250.239 44.3491 246.436 49.5081 242.091C54.4861 237.926 57.7444 233.309 60.2786 227.333C62.8129 221.177 65.2566 214.568 67.0668 208.14C68.9675 201.259 69.782 194.198 70.1441 187.045C70.3251 184.239 69.9631 181.342 71.3207 178.807C71.9542 177.63 72.8593 176.543 73.5834 175.547C73.1309 176.181 75.9366 172.379 75.2125 174.008C75.122 174.099 75.0315 174.823 75.2125 174.823Z" fill="url(#paint26_linear)"/>
<path opacity="0.33" d="M187.172 173.375C185.814 172.107 184.999 178.263 184.999 178.263C184.637 181.161 184.728 184.148 184.999 187.136C185.361 191.753 186.357 196.28 188.077 200.626C191.607 209.588 197.671 217.284 204.549 223.984C211.88 231.136 221.203 236.296 227.538 244.354C230.254 247.794 233.784 253.951 233.421 258.568C233.331 259.564 232.335 262.008 232.154 263.728C231.883 266.535 232.064 269.432 232.788 272.148C233.059 273.325 234.055 275.588 234.87 273.325C238.49 262.733 236.861 250.42 233.512 240.008C230.344 229.959 222.651 224.074 214.777 217.827C206.993 211.671 199.571 204.7 194.05 196.37C191.607 192.749 188.439 187.77 188.077 183.243C187.896 181.161 189.434 175.457 187.172 173.375Z" fill="url(#paint27_linear)"/>
<path opacity="0.33" d="M212.786 253.407C212.152 248.79 210.794 245.259 205.545 247.794C202.196 249.424 199.933 252.14 198.395 255.49C196.766 259.111 196.404 263.095 195.136 266.807C194.503 268.708 193.598 270.156 192.421 271.695C190.43 274.502 189.253 277.671 187.624 280.749C187.262 281.473 186.9 284.37 187.715 284.914C189.253 286 190.792 287.992 192.874 287.177C194.231 286.634 195.227 284.461 195.86 283.193C197.852 279.3 198.214 275.045 199.481 270.971C201.019 266.173 204.006 263.819 208.351 261.827C211.88 260.379 213.329 257.21 212.786 253.407Z" fill="url(#paint28_linear)"/>
<path opacity="0.33" d="M195.136 172.198C200.567 174.823 206.359 175.909 211.428 179.44C215.41 182.156 219.755 185.144 222.922 188.856C225.638 191.934 227.629 195.556 229.801 198.996C231.702 202.074 233.602 204.519 237.585 203.432C238.309 203.251 237.947 200.444 237.675 199.992C233.784 190.757 229.892 180.708 222.651 173.375C219.121 169.844 215.772 168.486 210.794 168.757C205.816 168.938 199.662 168.938 195.136 171.111C194.955 171.111 194.955 172.107 195.136 172.198Z" fill="url(#paint29_linear)"/>
<path opacity="0.33" d="M78.9233 237.021C78.4708 236.93 78.1088 237.021 77.6562 237.202C77.3847 237.292 77.4752 238.469 77.6562 238.56C81.8196 241.276 87.3406 242 92.0471 243.811C98.2017 246.255 103.27 250.148 108.52 254.132C112.593 257.3 117.027 260.107 120.014 264.453C121.191 266.173 124.721 273.868 127.255 272.42C129.699 271.062 128.703 262.642 127.617 260.65C128.251 263.366 128.341 263.638 127.888 261.646C127.798 261.284 127.707 261.012 127.617 260.65C127.255 259.654 126.621 258.749 125.988 257.934C124.721 256.305 123.273 254.765 122.005 253.226C119.019 249.424 115.579 247.07 111.144 244.988C106.076 242.543 100.736 240.461 95.2149 239.465C89.8749 238.469 82.9962 236.387 77.6562 237.202C77.6562 237.654 77.7467 238.107 77.7467 238.56C78.1088 238.379 78.5613 238.198 78.9233 238.016C79.1044 238.016 79.0139 237.111 78.9233 237.021Z" fill="url(#paint30_linear)"/>
<path opacity="0.33" d="M129.699 270.881C135.763 264 143.094 257.572 150.606 252.321C154.679 249.514 159.204 247.523 163.639 245.531C168.255 243.449 171.876 239.827 175.858 236.658C176.22 236.387 176.13 233.852 175.677 233.852C170.88 233.942 166.626 233.218 162.01 235.119C157.847 236.84 153.864 238.831 150.244 241.547C141.374 248.156 134.767 259.383 129.427 268.889C129.337 269.251 129.608 270.971 129.699 270.881Z" fill="url(#paint31_linear)"/>
<path opacity="0.33" d="M145.719 69.9836C154.589 79.6708 143.637 91.6214 136.577 98.7737C136.396 98.9547 136.396 100.675 136.668 100.584C143.184 99.498 147.891 88.5432 149.249 83.0206C150.244 78.6749 150.878 71.07 145.719 68.9877C145.628 68.8971 145.628 69.8025 145.719 69.9836Z" fill="url(#paint32_linear)"/>
<path opacity="0.33" d="M158.299 76.5926C155.222 86.7325 147.167 92.4362 138.478 97.5967C138.206 97.7778 138.387 99.2264 138.478 99.1358C147.891 96.1482 156.308 87.3663 158.48 77.7696C158.661 77.5885 158.48 76.321 158.299 76.5926Z" fill="url(#paint33_linear)"/>
<path opacity="0.33" d="M148.796 98.5021C155.856 97.5967 163.458 93.9753 169.341 90.0823C169.522 89.9013 169.341 88.7243 169.251 88.7243C162.463 91.6214 156.127 96.0576 148.705 97.2346C148.524 97.2346 148.615 98.5021 148.796 98.5021Z" fill="url(#paint34_linear)"/>
<path opacity="0.33" d="M90.3275 123.399C97.3871 119.959 102.999 113.893 108.701 108.642C113.317 104.296 117.933 100.856 120.195 94.6091C121.824 89.9013 122.096 84.3786 120.919 79.5803C120.376 77.4074 119.562 75.0535 118.023 73.4239C115.851 71.251 113.588 72.0659 110.873 72.0659C110.601 72.0659 110.601 73.9671 110.873 74.1482C113.86 76.0494 118.928 81.0288 119.743 84.7408C120.467 88.1811 117.208 92.9794 115.127 95.4239C111.687 99.4074 107.434 102.757 103.813 106.65C99.3783 111.449 95.0339 116.156 90.237 120.683C89.7844 120.955 90.1465 123.49 90.3275 123.399Z" fill="url(#paint35_linear)"/>
<path opacity="0.33" d="M91.4136 134.082C93.3142 127.292 105.261 131.638 108.429 134.354C109.968 135.712 114.765 138.881 114.493 141.235C114.222 143.498 114.765 140.601 112.955 141.597C111.144 142.593 109.696 144.403 108.701 146.123C108.61 146.304 108.52 147.753 108.791 147.663C112.774 146.576 115.67 146.757 115.851 142.049C116.032 137.975 115.398 134.263 112.231 131.547C106.891 126.93 91.3231 122.132 91.2325 133.539C91.2325 133.539 91.323 134.263 91.4136 134.082Z" fill="url(#paint36_linear)"/>
<path opacity="0.33" d="M95.9391 148.477C96.0296 148.84 95.396 144.494 95.577 146.033C95.577 146.395 95.6675 146.757 95.6675 147.119C95.758 147.844 95.939 148.568 96.1201 149.292C96.4821 150.469 97.2967 151.827 98.3828 152.461C99.1068 152.914 100.464 153.366 101.279 153.004C102.003 152.642 102.365 151.737 102.637 151.103C102.999 150.469 103.451 149.835 103.632 149.202C103.813 148.568 103.994 147.753 103.723 147.119C103.542 146.667 103.18 146.486 102.818 146.123C102.275 145.58 102.003 144.765 101.37 144.313C100.555 143.86 99.2879 143.86 98.3828 143.77C97.6587 143.679 96.6631 143.679 96.0296 144.132C95.3055 144.584 95.758 147.663 95.9391 148.477Z" fill="url(#paint37_linear)"/>
<path d="M69.601 25.6214C77.6562 26.5268 84.8969 24.2634 92.7712 22.9054C98.4732 21.9095 104.356 21.9095 110.058 22.7243C115.579 23.5391 121.734 25.2593 125.807 29.3333C129.608 33.2263 132.685 41.0124 127.436 44.6338C127.255 44.7243 127.255 46.1728 127.526 46.1728C131.961 46.535 131.418 39.9259 130.875 37.1194C129.88 31.5967 127.164 26.6173 122.277 23.7202C105.623 13.7613 86.9786 23.4486 69.42 22.1811C69.0579 22.1811 68.9674 25.5309 69.601 25.6214Z" fill="#54436B"/>
<path d="M120.105 26.7984C121.553 31.5062 122.82 35.7613 121.01 40.7408C120.195 43.0947 119.471 45.2675 119.109 47.8025C119.109 47.9836 119.109 50.2469 119.471 50.0659C123.182 48.1646 126.078 45.7202 130.332 44.9054C130.604 44.8148 130.513 43.5474 130.332 43.4568C126.259 42.2799 123.001 45.4486 119.471 46.9877C119.562 47.893 119.652 48.7079 119.743 49.6132C120.467 44.9054 123.182 40.7408 123.092 35.8519C123.001 32.2305 121.553 29.1523 120.286 25.8025C120.105 25.5309 120.014 26.6173 120.105 26.7984Z" fill="#54436B"/>
<path d="M69.239 24.4445C71.4112 21.6379 76.2081 22.8148 79.2854 22.2716C83.8109 21.5473 87.8838 18.7408 91.6851 16.4774C95.8485 14.0329 100.193 12.3128 104.537 15.6626C107.343 17.8354 109.063 21.1852 112.593 22.2716C112.683 22.2716 112.864 20.9136 112.593 20.7325C109.153 18.6502 106.981 15.1194 103.632 13.037C99.2878 10.2305 95.0339 12.4033 91.0515 14.7572C87.0692 17.0206 82.9963 19.6461 78.2898 20.0988C75.3031 20.4609 71.0492 19.7366 69.058 22.5432C68.7864 22.9959 69.1485 24.4445 69.239 24.4445Z" fill="#54436B"/>
<path d="M88.5173 23.5391C90.599 31.8684 81.7292 38.9301 81.5482 47.2593C81.4577 49.7037 81.9102 52.1482 82.7248 54.4116C84.3539 58.7572 88.4268 62.1976 89.3319 66.7243C89.5129 67.4486 89.6034 66.2716 89.6034 66.0906C89.5129 62.9218 88.4268 60.5679 86.6166 57.9424C84.3539 54.6832 83.0868 52.3293 82.9058 48.3457C82.8153 44.3622 84.0824 42.0988 85.8926 38.5679C88.2458 33.9507 91.2326 27.7943 88.6983 22.6338C88.5173 22.3622 88.4268 23.3581 88.5173 23.5391Z" fill="#54436B"/>
<path d="M132.867 45.9012C125.083 43.9095 118.657 49.4321 112.864 53.7778C109.244 56.4938 105.442 58.9383 101.37 60.749C97.1157 62.6502 92.6807 63.3745 88.2458 64.642C87.9743 64.7325 88.0648 66.1811 88.2458 66.1811C105.895 67.7202 116.484 49.1605 132.776 46.8971C133.048 46.8971 133.048 45.9012 132.867 45.9012Z" fill="#54436B"/>
<path d="M89.5128 65.0042C85.5305 66.3622 84.8969 70.0741 84.6254 73.786C84.3539 77.5885 84.0823 81.391 83.3583 85.1029C82.4532 89.5391 80.643 93.5227 79.1949 97.7778C77.0227 104.206 75.7555 110.996 75.122 117.696C74.3074 126.568 75.2125 135.35 72.0447 143.77C71.9542 144.041 72.1352 145.309 72.2257 145.218C75.122 140.782 75.122 135.169 75.2125 130.099C75.3935 121.407 76.1176 112.807 78.4708 104.387C80.3715 97.4157 83.3583 90.9877 84.3539 83.8354C85.1684 78.4033 83.8108 69.3498 89.6034 66.7243C89.8749 66.5432 89.6939 65.0042 89.5128 65.0042Z" fill="#54436B"/>
<path d="M128.432 47.4404C134.405 47.8025 140.56 48.4362 146.171 50.6091C152.054 52.8725 156.851 56.9465 162.372 60.0247C173.143 66 189.706 68.8971 192.331 82.9301C192.512 83.7449 192.602 82.6585 192.602 82.3869C191.244 69.1688 178.935 65.9095 168.527 60.9301C161.648 57.5803 155.584 52.6009 148.615 49.5227C142.189 46.6255 135.401 46.0823 128.432 46.3539C128.251 46.1729 128.251 47.4404 128.432 47.4404Z" fill="#54436B"/>
<path d="M190.339 92.2552C189.706 99.9506 191.969 107.465 194.231 114.798C194.955 117.243 196.404 120.321 195.227 122.765C194.141 124.938 191.697 126.296 189.796 127.564C186.629 129.556 184.366 131.547 182.827 135.078C180.927 139.333 179.207 144.313 178.03 148.84C176.582 154.634 176.22 160.7 173.052 165.951C167.803 174.642 158.752 178.263 149.973 182.519C149.611 182.7 149.882 184.239 149.973 184.239C158.299 181.885 167.35 178.444 172.6 171.111C175.406 167.218 176.582 162.691 177.487 158.074C178.754 151.465 180.474 144.856 183.28 138.7C186.448 131.728 196.313 130.551 196.585 122.041C196.675 119.235 195.951 116.7 195.136 114.074C192.964 107.193 190.339 100.041 190.701 92.7078C190.611 92.5268 190.339 91.4404 190.339 92.2552Z" fill="#54436B"/>
<path d="M191.245 74.8725C198.214 75.0535 205.454 73.4239 212.333 74.6914C219.031 75.8683 224.642 80.5762 228.715 86.0083C232.697 91.3498 235.141 97.5967 238.128 103.572C240.029 107.375 243.83 114.617 248.808 114.165C249.351 114.074 249.17 111.177 248.717 110.905C237.404 104.93 235.322 90.4445 227.176 81.1194C223.285 76.6832 218.307 72.9712 212.333 72.0659C205.273 70.9795 198.214 72.6996 191.245 73.0618C190.973 73.0618 190.973 74.8725 191.245 74.8725Z" fill="#54436B"/>
<path d="M223.285 80.1234C229.892 82.6584 236.861 82.93 243.739 84.1975C246.455 84.7407 250.89 86.0988 250.89 89.5391C250.89 91.5309 248.717 94.0658 247.631 95.6049C244.464 100.132 239.395 107.103 244.283 112.354C244.373 112.444 244.645 110.543 244.373 110.091C239.848 103.21 252.519 96.0576 251.523 88.1811C251.071 84.5597 248.265 82.5679 244.916 81.6625C241.839 80.9383 238.581 81.1193 235.413 80.7572C231.34 80.3045 227.357 79.3086 223.285 79.1276C223.104 79.1276 223.104 80.0329 223.285 80.1234Z" fill="#54436B"/>
<path d="M195.317 125.482C197.309 125.572 199.843 126.025 201.743 125.21C202.92 124.757 203.554 123.852 204.549 123.128C208.713 120.14 214.053 122.041 218.306 119.144C221.836 116.79 223.737 112.716 226.633 109.728C230.163 106.107 235.051 105.021 238.852 101.852C239.033 101.671 238.942 100.222 238.761 100.313C234.96 101.218 230.978 103.3 227.9 105.835C224.461 108.642 222.56 112.897 219.212 115.704C215.229 119.054 210.432 117.333 206.088 119.416C204.64 120.049 203.825 121.317 202.467 122.132C200.386 123.399 197.671 123.49 195.408 123.852C195.046 123.852 195.046 125.482 195.317 125.482Z" fill="#54436B"/>
<path d="M101.55 30.8725C102.637 31.2346 103.723 30.8725 104.809 31.3251C105.985 31.7778 106.89 32.6832 107.524 33.679C109.606 36.7572 109.153 39.7449 107.886 43.0041C107.796 43.1852 107.886 44.9054 108.067 44.7243C110.511 42.9136 109.787 37.2099 109.063 34.7655C108.248 32.0494 104.718 27.1605 101.46 29.9671C101.369 30.0576 101.369 30.8725 101.55 30.8725Z" fill="#54436B"/>
<path d="M203.373 95.5144C206.812 101.128 213.872 95.5144 216.134 91.6214C216.496 90.9877 216.768 89.5391 217.22 89.0865C218.488 87.9095 220.75 88.9959 222.017 89.8107C224.461 91.4404 226.271 94.6091 229.349 94.7902C229.62 94.7902 229.62 93.07 229.258 92.8889C225.276 90.6255 222.108 85.8272 217.13 86.1893C217.039 86.1893 216.949 86.5515 216.949 86.5515C215.682 92.5268 208.984 97.6873 203.282 94.6091C203.282 94.5186 203.282 95.4239 203.373 95.5144Z" fill="#54436B"/>
<path d="M111.778 79.2181C120.376 90.4444 107.434 95.5144 102.003 102.757C101.822 102.938 101.913 104.658 102.094 104.568C111.687 100.222 120.829 87.0041 111.869 77.7696C111.778 77.5885 111.597 78.856 111.778 79.2181Z" fill="#54436B"/>
<path d="M145.9 114.617C150.606 112.716 153.683 108.914 159.204 108.914C164.454 108.914 167.079 112.807 171.423 114.798C171.514 114.889 171.604 113.531 171.423 113.44C168.346 109.728 164.092 106.379 159.114 106.288C153.683 106.198 149.43 110 145.809 113.621C145.719 113.712 145.809 114.708 145.9 114.617Z" fill="#54436B"/>
<path d="M152.778 113.984C155.222 117.877 164.725 120.321 167.079 115.251C167.169 114.979 167.079 113.44 166.898 113.621C163.277 116.428 155.856 116.428 152.778 112.626C152.778 112.535 152.597 113.712 152.778 113.984Z" fill="#54436B"/>
<path d="M99.1973 85.465C100.917 89.9012 107.796 97.3251 111.144 90.1729C111.235 89.9918 111.235 88.4527 110.963 88.5432C108.429 89.6296 106.981 90.9877 104.175 89.358C102.094 88.0905 100.736 86.1893 99.1973 84.3786C99.1973 84.1975 99.1068 85.284 99.1973 85.465Z" fill="#54436B"/>
<path d="M99.2879 84.1975C101.279 84.6502 103.451 84.5597 105.533 84.9218C107.886 85.3745 108.791 86.2798 110.239 88.0905C110.33 88.2716 110.42 87.0041 110.42 86.9136C109.696 81.4815 103.361 82.2058 99.2879 83.2016C99.1068 83.2016 99.1068 84.1975 99.2879 84.1975Z" fill="#54436B"/>
<path d="M96.8441 125.753C102.365 126.025 106.981 126.93 111.325 130.551C113.769 132.634 119.471 137.07 119.29 140.601C119.29 140.782 119.471 142.14 119.652 141.416C120.376 137.432 117.571 134.173 114.946 131.547C109.515 126.115 104.537 124.033 96.7536 124.305C96.5726 124.305 96.5726 125.753 96.8441 125.753Z" fill="#54436B"/>
<path d="M94.4004 125.753C85.7116 124.214 88.9699 140.148 90.418 144.132C95.396 158.074 111.506 154.815 119.652 145.49C119.833 145.309 119.652 144.132 119.562 144.222C112.231 149.654 100.645 155.63 93.2238 146.576C88.8794 141.325 86.6166 129.374 94.4909 126.658C94.5814 126.658 94.5814 125.753 94.4004 125.753Z" fill="#54436B"/>
<path d="M94.0384 135.621C95.6675 135.984 97.4777 137.613 96.9346 139.424C96.6631 140.148 96.1201 140.872 95.396 141.235C94.6719 141.597 93.7668 141.506 93.1333 141.959C92.8618 142.14 92.9523 143.498 93.1333 143.679C94.1289 144.765 95.4865 144.313 96.3916 143.317C97.2967 142.321 97.5682 140.872 97.5682 139.605C97.6587 137.07 96.9347 133.901 93.9479 133.811C93.7668 133.901 93.6763 135.531 94.0384 135.621Z" fill="#54436B"/>
<path d="M104.447 147.391C104.718 147.934 104.628 148.296 105.352 148.477C105.533 148.568 105.533 147.663 105.623 147.572C105.714 145.852 104.809 142.683 106.8 141.868C108.61 141.144 110.782 142.14 112.321 140.782C112.502 140.601 112.502 139.243 112.231 139.152C111.054 138.7 109.696 138.79 108.52 138.881C107.434 138.881 106.257 139.062 105.623 140.058C104.356 141.959 105.171 144.856 105.08 147.029C105.171 146.757 105.261 146.486 105.352 146.123C104.899 146.123 104.899 145.761 104.718 145.49C104.537 145.309 104.447 146.123 104.447 146.123C104.266 146.486 104.266 147.119 104.447 147.391Z" fill="#54436B"/>
<path d="M83.3583 126.296C82.1816 134.354 71.7732 139.152 73.7643 148.025C75.7555 156.716 86.7976 157.531 93.4952 159.794C99.2878 161.786 102.456 167.49 107.162 171.021C110.963 173.827 115.127 175.366 119.743 175.909C127.888 176.815 140.198 176.091 145.085 168.395C145.266 168.123 145.085 166.856 144.995 166.947C138.84 172.198 130.242 173.465 122.458 173.012C117.752 172.741 113.226 171.835 109.153 169.3C105.08 166.765 102.365 163.054 98.9257 159.885C92.6806 154 82.5437 155.992 76.2986 149.292C72.2257 144.856 77.1132 140.42 79.7379 136.527C81.8196 133.539 83.2677 130.551 83.6298 126.93C83.5393 126.749 83.4488 125.844 83.3583 126.296Z" fill="#54436B"/>
<path d="M81.3671 158.346C84.6254 164.321 101.007 176.905 107.434 169.844C107.705 169.572 107.434 167.761 107.343 167.761C103.27 170.206 97.6586 167.852 93.9478 165.86C89.4224 163.506 84.8969 160.428 81.5481 156.535C81.3671 156.535 81.1861 157.984 81.3671 158.346Z" fill="#54436B"/>
<path d="M129.065 147.663C129.246 148.206 129.427 148.749 129.608 149.202C129.699 149.202 129.699 149.111 129.789 149.111C129.88 149.021 129.97 148.749 129.97 148.658C130.151 148.025 130.151 147.3 130.151 146.576C130.151 145.942 130.061 145.309 129.88 144.675C129.789 144.494 129.699 143.951 129.427 144.222C129.246 144.403 129.246 144.765 129.156 144.856C129.246 144.584 129.246 144.584 129.156 144.856C129.065 145.037 129.065 145.309 129.065 145.58C128.975 146.305 128.975 147.029 129.065 147.663Z" fill="#54436B"/>
<path d="M124.359 155.992C124.54 156.082 124.54 156.082 124.63 156.354C124.721 156.444 124.721 156.444 124.811 156.354C124.992 156.082 124.992 155.811 125.083 155.449C125.083 154.905 125.173 154.272 124.992 153.728C124.811 153.366 124.721 153.457 124.63 153.819C124.721 153.547 124.63 153.728 124.54 153.909C124.449 154.091 124.449 154.272 124.449 154.453C124.54 154.272 124.54 154.091 124.63 153.909C124.54 154 124.449 154.091 124.359 154.091C124.178 154.181 124.268 154.815 124.268 154.996C124.178 155.268 124.178 155.811 124.359 155.992Z" fill="#54436B"/>
<path d="M125.264 150.469C125.445 150.56 125.626 150.922 125.716 150.65C125.897 150.469 125.807 149.926 125.807 149.745C125.807 149.473 125.807 149.111 125.716 148.839C125.535 148.568 125.445 148.93 125.173 149.021C124.902 149.111 124.992 150.379 125.264 150.469Z" fill="#54436B"/>
<path d="M132.142 156.626C132.233 156.626 132.323 156.716 132.504 156.716L132.414 156.626C132.595 156.897 132.595 158.436 133.138 158.255C133.319 158.165 133.41 157.712 133.41 157.621C133.5 157.078 133.5 156.444 133.5 155.901C133.5 155.449 133.41 154.905 133.319 154.453C133.229 154.181 133.229 153.728 133.047 153.547C132.504 153.185 132.414 154.996 132.323 155.086L132.414 154.996C132.323 155.086 132.233 155.086 132.052 155.086C131.78 155.086 131.871 156.535 132.142 156.626Z" fill="#54436B"/>
<path d="M122.73 163.144V162.872C122.73 162.51 122.73 162.058 122.639 161.695C122.639 161.605 122.548 161.333 122.458 161.243C122.096 161.152 122.096 162.329 122.096 162.42V162.691C122.096 163.144 122.096 163.506 122.186 163.959C122.186 164.14 122.277 164.683 122.458 164.774C122.73 164.864 122.73 163.235 122.73 163.144Z" fill="#54436B"/>
<path d="M84.5349 136.979C84.4444 136.708 84.3539 136.708 84.3539 136.798C84.3539 136.889 84.2634 136.979 84.2634 136.979C84.0824 137.251 84.0824 137.704 84.0824 137.975C84.0824 138.247 84.0824 138.7 84.2634 138.971C84.3539 139.062 84.4444 139.243 84.5349 139.333C84.6255 139.424 84.716 139.243 84.8065 139.152C84.897 138.971 84.897 138.79 84.897 138.519V138.066C84.897 137.704 84.897 137.251 84.8065 136.889C84.716 136.708 84.6255 136.617 84.5349 136.979Z" fill="#54436B"/>
<path d="M86.7071 128.922C86.8882 128.922 86.9787 129.012 87.0692 129.103C87.3407 129.375 87.2502 127.202 87.0692 127.473C86.9787 127.564 86.8882 127.654 86.7071 127.654C86.4356 127.654 86.5261 128.922 86.7071 128.922Z" fill="#54436B"/>
<path d="M84.2634 135.078C84.4444 135.078 84.5349 135.169 84.6254 135.35C84.7159 135.531 84.8065 135.078 84.8065 135.078C84.897 134.897 84.897 134.626 84.8065 134.354C84.8065 134.173 84.8065 133.901 84.7159 133.72C84.7159 133.72 84.6254 133.268 84.5349 133.449C84.4444 133.63 84.3539 133.72 84.1729 133.72C83.9919 133.72 84.0824 134.988 84.2634 135.078Z" fill="#54436B"/>
<path d="M185.542 136.798C188.62 141.959 185.814 147.119 187.081 152.551C187.081 152.733 187.262 153.004 187.353 152.733C188.439 150.107 187.986 145.942 187.896 143.136C187.805 140.872 187.805 136.708 185.633 135.259C185.361 135.078 185.452 136.527 185.542 136.798Z" fill="#54436B"/>
<path d="M192.331 160.156C193.96 165.679 196.222 170.93 197.761 176.453C199.209 181.613 199.571 186.955 201.019 192.115C203.644 201.531 210.342 207.325 216.406 214.568C223.828 223.44 229.711 233.309 234.598 243.811C236.861 248.79 239.123 253.951 240.753 259.202C243.196 267.44 242.201 274.321 237.042 281.111C236.861 281.383 237.042 282.741 237.132 282.65C244.192 277.218 243.377 265.901 241.386 258.296C238.399 246.889 232.697 235.663 226.633 225.613C223.194 219.909 219.393 214.296 215.048 209.317C210.975 204.609 206.269 200.444 203.554 194.741C200.838 189.128 200.657 182.971 199.209 176.996C197.671 170.658 194.955 164.683 192.693 158.527C192.421 158.255 192.24 159.885 192.331 160.156Z" fill="#54436B"/>
<path d="M205.454 247.885L206.631 246.708C206.721 246.617 206.721 246.255 206.721 246.165C206.721 246.165 206.631 245.802 206.631 245.893L205.454 247.07C205.364 247.161 205.364 247.523 205.364 247.613C205.364 247.613 205.364 247.975 205.454 247.885Z" fill="#54436B"/>
<path d="M188.258 149.745C187.715 155.539 188.891 161.696 185.542 166.765C182.375 171.564 178.121 175.91 174.048 179.893C165.178 188.675 153.321 196.008 140.922 198.181C128.522 200.263 116.575 196.551 105.352 191.391C100.917 189.309 96.4821 187.045 92.4092 184.239C88.6984 181.613 83.1773 177.268 83.1773 172.288C83.1773 171.926 82.9058 170.296 82.7248 171.564C81.9102 181.432 89.2414 188.041 97.1157 192.658C108.882 199.63 123.273 206.329 137.211 205.062C151.421 203.794 165.631 195.556 175.496 185.506C180.202 180.708 185.723 174.823 187.534 168.214C189.072 162.42 188.258 156.354 188.439 150.379C188.62 150.017 188.348 148.749 188.258 149.745Z" fill="#54436B"/>
<path d="M69.9631 145.852C68.7865 148.93 66.7048 151.374 65.6187 154.453C64.6231 157.35 63.537 160.247 62.6319 163.054C60.4597 169.3 59.4641 175.819 58.2875 182.337C57.0204 189.49 56.3868 197.185 54.0336 204.066C52.0424 209.77 48.6031 214.658 44.9827 219.366C40.9099 224.527 36.837 229.506 31.678 233.58C27.4241 236.93 22.4461 240.189 20.1834 245.35C15.839 255.309 21.36 266.535 18.8258 276.765C18.7353 277.128 19.0068 278.848 19.1878 278.395C22.8082 268.255 15.5675 255.761 21.7221 246.527C25.1614 241.366 30.9539 238.379 35.3888 234.305C39.9143 230.14 43.7156 225.07 47.336 220.181C50.2322 216.107 52.857 211.852 54.4861 207.144C56.5678 201.078 57.2014 194.469 58.2875 188.132C59.6451 180.527 60.6407 172.831 62.9939 165.407C63.9895 162.42 64.9851 159.342 65.9807 156.354C67.0668 153.095 69.1485 150.469 70.2346 147.21C70.3251 146.848 70.0536 145.58 69.9631 145.852Z" fill="#54436B"/>
<path d="M60.8217 276.675C72.0448 260.65 97.3872 269.975 112.231 274.502C124.992 278.486 138.026 281.926 151.059 284.823C159.114 286.634 170.337 289.35 177.578 283.827C177.849 283.646 177.578 282.288 177.487 282.288C169.885 286.543 158.028 283.374 150.063 281.564C136.487 278.486 123.092 274.774 109.787 270.7C95.396 266.263 70.7777 258.93 60.7312 274.955C60.4597 275.317 60.8217 276.675 60.8217 276.675Z" fill="#54436B"/>
<path d="M192.059 158.617C201.924 158.436 210.342 165.045 218.94 169.119C223.737 171.383 228.443 173.737 232.788 176.724C237.042 179.712 240.21 183.424 243.92 186.955C244.101 187.045 244.101 185.687 244.011 185.416C239.486 176.453 229.53 170.93 220.75 166.856C211.88 162.691 202.196 156.082 191.969 156.988C191.788 157.078 191.878 158.708 192.059 158.617Z" fill="#54436B"/>
<path d="M160.472 109.095C159.657 108.551 158.752 108.28 157.756 108.189C157.304 108.189 156.761 108.189 156.308 108.551C155.856 109.004 155.856 109.819 155.856 110.362C155.856 111.086 156.037 111.901 156.399 112.535C157.032 113.531 157.937 114.346 158.933 114.979C159.838 115.523 160.924 116.156 162.01 116.066C163.73 115.975 163.639 113.621 163.549 112.444C163.549 112.263 163.458 111.449 163.187 111.539C162.915 111.72 163.006 112.897 163.006 113.078V112.807C163.006 112.988 163.096 112.626 163.006 112.807C163.006 112.807 162.915 113.078 163.006 112.807C162.915 112.988 162.915 112.988 162.825 113.259C162.644 113.531 162.282 113.621 161.92 113.621C161.015 113.712 160.11 113.259 159.295 112.807C158.39 112.263 157.575 111.63 156.851 110.815C156.58 110.453 156.399 110.181 156.218 109.909C156.127 109.728 156.218 110 156.218 109.819C156.308 110.091 156.308 110.634 156.218 110.996C156.218 111.086 156.127 110.996 156.218 111.177V111.086L156.308 110.996C156.67 110.724 157.123 110.634 157.575 110.543C158.48 110.453 159.386 110.543 160.291 110.362C160.653 110.181 160.653 109.185 160.472 109.095Z" fill="#54436B"/>
<path d="M160.472 111.177C160.2 111.267 160.2 111.811 160.2 111.992V112.082C160.2 111.992 160.2 111.811 160.291 111.72H160.11C160.019 111.72 159.929 111.72 159.838 111.63L160.11 112.988C160.2 112.897 160.2 112.716 160.2 112.626C160.291 112.444 160.291 112.173 160.381 111.992C160.291 112.082 160.2 112.173 160.2 112.263C160.472 112.626 160.924 113.078 161.377 112.897C161.739 112.807 161.648 110.996 161.286 110.905C160.834 110.815 160.472 110.453 160.2 110.181C160.019 110 160.019 110.453 160.019 110.453C159.929 111.086 159.657 111.72 159.657 112.444C159.657 112.626 159.567 113.712 159.929 113.802C160.381 113.893 160.562 113.712 160.653 113.259C160.743 112.988 160.743 112.716 160.743 112.354V112.082C160.743 111.449 160.834 112.626 160.653 112.716C160.743 112.807 160.653 111.177 160.472 111.177Z" fill="#54436B"/>
<path d="M103.904 86.823C103.994 87.7284 104.266 88.4527 104.447 89.358C104.447 89.4486 104.537 89.7202 104.628 89.7202C105.895 89.9012 107.072 89.5391 107.977 88.6337C108.339 88.2716 108.248 86.642 107.886 86.2798C107.434 85.7366 106.8 85.3745 106.076 85.3745C105.171 85.284 104.718 85.5556 104.356 86.3704C104.266 86.642 104.175 87.6379 104.447 87.9095C104.899 88.2716 105.442 87.9095 105.985 87.9095C106.619 87.9095 107.253 88.1811 107.705 88.7243C107.705 87.9095 107.705 87.0947 107.615 86.3704C106.71 87.2757 105.714 87.7284 104.447 87.5473C104.537 87.6379 104.537 87.7284 104.628 87.9095C104.537 87.4568 104.266 86.9136 104.266 86.4609C104.266 86.3704 104.175 85.465 103.904 85.6461C103.813 85.6461 103.904 86.5514 103.904 86.823Z" fill="#54436B"/>
<path d="M102.094 123.037C104.718 123.218 106.529 123.671 108.791 125.3C110.511 126.477 111.959 128.016 113.86 128.922C113.95 129.012 113.95 127.835 113.86 127.654C111.959 125.3 105.352 119.687 102.094 122.132C102.003 122.222 102.003 123.037 102.094 123.037Z" fill="#54436B"/>
<path d="M144.18 174.099C147.71 176.996 154.136 177.358 158.39 176C158.571 175.909 158.571 174.733 158.39 174.733C153.774 173.374 148.524 175.638 144.271 172.56C144.18 172.379 143.909 173.827 144.18 174.099Z" fill="#54436B"/>
<path d="M73.9454 154.453C73.9454 157.712 75.0315 160.066 77.0227 162.601C80.6431 167.49 82.3627 173.284 85.8021 178.263C85.8926 178.444 85.9831 176.905 85.9831 176.634C84.897 172.379 82.5437 168.305 80.281 164.502C78.4709 161.424 74.3075 158.527 74.217 154.634C74.3075 154.091 73.9454 153.547 73.9454 154.453Z" fill="#54436B"/>
<path d="M276.775 107.284C280.576 108.28 282.93 109.638 285.011 113.078C287.093 116.428 287.998 120.049 288.903 123.852C290.17 129.556 294.605 138.337 291.98 143.951C291.89 144.132 291.799 146.214 292.161 146.123C296.868 144.856 290.985 127.654 290.261 125.21C289.175 121.226 288.541 117.243 286.731 113.531C285.102 110.181 281.3 104.206 276.775 106.379C276.594 106.379 276.594 107.193 276.775 107.284Z" fill="#54436B"/>
<path d="M277.137 106.288C273.879 106.107 272.883 112.263 272.159 114.527C270.439 119.959 267.815 125.21 266.638 130.823C265.914 134.535 263.923 149.292 270.349 149.564C270.711 149.564 270.53 147.844 270.349 147.663C265.099 140.51 267.091 133.539 269.987 125.844C272.159 120.049 272.883 112.626 277.318 108.099C277.409 107.827 277.499 106.379 277.137 106.288Z" fill="#54436B"/>
<path d="M323.115 152.551C322.934 146.123 331.352 139.695 336.239 136.617C339.226 134.716 342.665 133.267 346.105 132.272C348.005 131.728 349.996 131.276 351.988 130.914C353.436 130.642 357.418 129.465 358.685 130.189C363.663 132.724 353.707 149.745 351.626 152.642C347.191 158.708 340.674 161.333 335.153 166.041C334.972 166.222 335.063 167.671 335.244 167.671C351.173 164.683 362.306 143.136 360.405 128.107C360.405 128.016 360.314 127.383 360.133 127.383C349.906 126.839 340.041 129.374 332.166 136.074C327.188 140.329 322.029 146.123 322.934 153.095C322.934 153.819 323.115 152.914 323.115 152.551Z" fill="#54436B"/>
<path d="M295.42 128.922C300.307 129.646 305.285 129.556 310.173 130.37C315.06 131.185 319.133 133.358 323.749 134.988C323.839 134.988 323.93 133.811 323.749 133.63C316.508 127.292 304.561 126.115 295.329 127.564C295.148 127.654 295.148 128.922 295.42 128.922Z" fill="#54436B"/>
<path d="M275.146 160.79C279.852 159.16 286.007 161.424 289.537 164.774C291.166 166.313 292.071 168.395 292.614 170.568C293.7 174.823 292.524 177.358 288.903 179.078C288.722 179.169 288.722 180.436 288.903 180.527C295.058 181.432 293.61 171.021 292.524 167.761C291.528 164.774 289.899 162.601 287.093 161.062C283.925 159.251 278.314 157.078 275.146 159.885C274.965 159.975 275.055 160.79 275.146 160.79Z" fill="#54436B"/>
<path d="M278.585 160.881C278.404 164.593 279.128 168.938 281.662 171.835C284.83 175.276 289.899 174.733 292.976 171.473C293.157 171.292 293.157 170.025 292.886 170.025C289.718 170.477 286.821 172.107 283.654 170.477C280.124 168.667 279.128 164.412 278.857 160.79C278.857 160.156 278.676 160.247 278.585 160.881Z" fill="#54436B"/>
<path d="M308.544 187.317C308.725 180.798 309.901 175.366 316.87 173.646C323.115 172.107 328.727 173.737 333.795 177.539C333.886 177.63 334.067 176.543 333.795 176.362C328.546 171.021 319.224 167.399 312.345 172.288C307.819 175.547 307.91 182.066 308.091 187.045C308.182 187.77 308.544 188.403 308.544 187.317Z" fill="#54436B"/>
<path d="M311.892 176.724C314.155 184.42 322.663 183.152 326.645 177.539C326.826 177.358 326.645 176.181 326.555 176.272C322.029 179.712 315.06 181.704 312.073 175.366C311.892 175.004 311.802 176.543 311.892 176.724Z" fill="#54436B"/>
<path d="M324.202 178.626C325.921 178.263 327.007 176.543 327.188 174.823C327.188 174.733 327.098 173.646 327.007 173.827C326.826 174.099 326.736 174.461 326.645 174.823L326.102 175.91C325.65 176.634 325.016 177.268 324.202 177.63C324.021 177.72 324.021 178.626 324.202 178.626Z" fill="#54436B"/>
<path d="M318.952 176.996C319.224 176.905 319.224 177.086 319.314 177.267C319.405 177.358 319.495 177.449 319.676 177.449C319.948 177.539 320.31 177.63 320.581 177.63C320.762 177.63 320.853 176.815 320.853 176.724C320.853 176.272 320.853 175.728 320.672 175.366C320.581 175.095 320.491 174.823 320.31 174.642C320.129 174.461 319.767 174.189 319.586 174.28C319.133 174.461 319.133 175.185 319.133 175.547C319.133 176 319.133 176.453 319.224 176.996C319.224 177.086 319.314 177.177 319.314 177.267C319.224 176.996 319.314 177.358 319.405 177.449C319.314 177.177 319.314 176.905 319.224 176.634V176.724C319.224 176.362 319.314 175.909 319.314 175.547C319.133 176.091 319.133 176.634 319.224 177.177C319.495 178.173 319.767 176.091 319.676 175.547C319.676 175.457 319.676 175.276 319.586 175.185C319.405 174.642 319.495 174.914 319.676 175.909C319.676 176.272 319.586 176.724 319.586 177.086C319.586 176.905 320.129 177.086 320.219 177.177C320.31 177.267 320.4 177.449 320.491 177.539V175.185C320.219 175.276 319.857 175.276 319.586 175.366C319.495 175.366 319.314 175.547 319.314 175.547C319.224 175.638 319.224 175.728 319.133 175.819C319.043 175.819 318.952 175.909 318.952 175.909C318.68 176.091 318.771 177.086 318.952 176.996Z" fill="#54436B"/>
<path d="M284.559 167.037C284.378 166.132 284.378 165.951 284.468 166.584C284.468 166.675 284.468 166.856 284.559 166.947C284.559 167.037 284.649 167.128 284.649 167.218C284.74 167.58 284.74 167.399 284.649 166.675C284.649 167.128 284.649 167.761 284.74 168.214C284.74 168.214 284.921 168.938 285.102 168.576C285.554 167.761 285.916 167.128 286.097 166.132C285.916 166.222 285.826 166.313 285.645 166.403C285.826 166.856 285.826 166.584 285.645 165.498C285.645 165.589 285.554 165.77 285.554 165.86C285.464 166.132 285.283 166.494 285.192 166.765C285.011 167.309 285.011 168.033 285.102 168.667C285.102 168.757 285.283 169.844 285.464 169.482C286.007 168.757 286.188 167.761 286.278 166.856C286.369 165.86 286.369 164.593 285.916 163.687C285.735 163.325 285.554 163.687 285.464 163.959C285.373 164.593 285.102 165.045 284.83 165.498C285.011 166.132 285.102 166.765 285.283 167.399C285.373 166.403 285.283 165.317 284.649 164.502C284.468 164.23 284.287 165.226 284.287 165.317C284.287 165.951 284.287 166.584 284.559 167.037Z" fill="#54436B"/>
<path d="M290.985 189.037C294.605 190.033 299.493 189.037 302.298 192.206C302.298 192.206 302.751 190.486 302.389 190.033C300.126 187.498 294.153 186.502 290.985 187.498C290.623 187.589 290.713 188.947 290.985 189.037Z" fill="#54436B"/>
<path d="M292.161 191.572C292.976 192.477 293.881 192.749 294.424 194.016C294.877 195.012 294.967 196.008 295.148 197.095C295.148 197.185 295.329 198.091 295.51 197.819C296.234 196.733 297.049 195.737 298.135 195.103C299.221 194.469 300.488 194.469 301.484 193.835C301.846 193.654 301.755 192.025 301.393 191.844C299.221 190.667 296.234 193.202 295.148 194.922C295.239 195.193 295.42 195.374 295.51 195.646C295.329 194.379 294.334 189.037 291.98 190.757C291.98 190.757 291.98 191.481 292.161 191.572Z" fill="#54436B"/>
<path d="M292.161 191.572C293.067 191.663 294.062 191.663 294.967 191.753C295.329 191.753 295.239 189.49 294.877 189.58C293.972 189.671 292.976 189.671 292.071 189.761C291.89 189.852 291.89 191.572 292.161 191.572Z" fill="#54436B"/>
<path d="M295.782 192.658C296.506 192.749 297.139 192.93 297.773 192.93C298.135 192.93 298.045 190.938 297.682 190.938C296.958 190.938 296.325 191.029 295.691 191.21C295.51 191.21 295.601 192.658 295.782 192.658Z" fill="#54436B"/>
<path d="M290.532 202.708C292.161 202.617 293.61 202.889 295.148 203.432C296.506 203.975 297.592 204.7 299.04 204.428C299.312 204.428 299.221 203.07 299.04 202.889C296.868 200.354 293.791 199.358 290.442 199.811C289.989 199.901 290.17 202.708 290.532 202.708Z" fill="#54436B"/>
<path d="M266.186 145.671C259.759 147.663 254.872 154 252.247 159.885C248.808 167.49 249.442 175.728 247.088 183.605C242.11 200.173 225.547 211.942 225.909 230.049C225.909 230.412 226.181 231.226 226.271 230.412C227.176 221.086 232.607 214.115 237.585 206.51C241.929 199.992 246.093 193.111 248.084 185.416C249.894 178.263 249.623 170.93 252.338 163.959C255.234 156.444 260.393 152.28 266.276 147.3C266.457 147.119 266.367 145.671 266.186 145.671Z" fill="#54436B"/>
<path d="M264.918 249.424C262.746 253.588 262.927 258.206 264.285 262.642C265.552 266.716 267.815 270.247 269.625 274.049C271.797 278.848 272.883 283.556 273.155 288.807C273.245 289.802 273.788 290.889 273.788 289.169C273.879 284.733 273.336 280.296 271.978 276.041C269.353 267.893 261.841 260.107 265.099 251.053C265.28 250.691 264.918 249.424 264.918 249.424Z" fill="#54436B"/>
<path d="M240.119 279.572C239.757 282.831 241.386 286.272 240.753 289.44C240.572 290.255 240.572 291.251 240.753 292.066C240.843 292.247 241.115 293.333 241.296 292.609C241.748 290.798 241.839 288.897 241.658 286.996C241.386 284.642 240.21 282.469 240.391 280.115C240.481 279.753 240.21 278.757 240.119 279.572Z" fill="#54436B"/>
<path d="M353.255 157.169C351.897 159.342 352.531 162.51 352.893 164.955C353.617 169.844 353.617 173.284 352.078 178.082C351.083 181.07 350.177 184.239 349.091 187.136C346.919 192.84 342.937 197.728 339.407 202.708C335.968 207.597 331.623 212.576 326.826 216.288C326.555 216.56 326.645 218.733 326.917 218.642C332.528 217.284 335.787 213.391 339.045 208.774C342.484 203.885 346.376 198.905 348.82 193.383C351.264 187.86 353.436 181.161 354.25 175.095C354.974 169.482 352.169 163.687 353.345 158.346C353.526 158.165 353.345 156.988 353.255 157.169Z" fill="#54436B"/>
<path d="M350.087 197.095C349.906 197.004 349.725 197.004 349.634 196.914V198.272C352.078 199.086 355.155 198.815 357.78 199.268C362.215 200.082 366.56 201.169 371.085 201.712C375.339 202.255 379.412 202.798 383.304 204.519C387.467 206.42 391.359 208.864 395.613 210.584C399.776 212.305 403.668 213.663 407.198 216.741C410.094 219.276 412.99 221.901 415.887 224.436C419.054 227.152 421.408 230.683 424.485 233.49C427.562 236.296 431.183 238.469 434.441 241.004C434.531 241.095 434.712 239.646 434.531 239.374C431.545 236.115 427.743 233.852 424.666 230.774C421.679 227.786 419.326 224.255 416.068 221.358C409.913 216.016 404.935 210.494 397.061 207.778C392.988 206.42 389.277 204.337 385.385 202.436C381.222 200.444 377.149 199.539 372.624 199.086C368.098 198.634 363.754 197.819 359.319 197.185C356.694 196.823 352.35 195.827 349.725 196.914C349.453 197.004 349.634 198.272 349.725 198.272C349.906 198.181 349.996 198.181 350.177 198.091C350.268 198 350.268 197.185 350.087 197.095Z" fill="#54436B"/>
<path d="M416.249 223.621C425.118 216.56 440.686 214.84 450.732 220.181C457.883 223.984 463.675 229.144 471.459 231.951C479.695 234.938 488.384 237.564 497.254 236.658C497.525 236.658 497.525 234.757 497.163 234.757C488.203 233.49 479.605 230.774 471.368 227.062C466.933 225.07 462.589 222.897 458.516 220.091C455.529 218.099 452.633 215.926 449.375 214.568C440.052 210.584 422.132 212.576 416.068 221.811C415.887 222.082 416.068 223.802 416.249 223.621Z" fill="#54436B"/>
<path d="M448.198 246.346C451.004 247.523 455.439 248.881 458.335 247.342C458.516 247.251 458.516 245.984 458.335 246.074C456.615 246.255 455.077 246.617 453.267 246.527C451.547 246.436 449.827 245.984 448.198 245.44C448.108 245.35 447.927 246.255 448.198 246.346Z" fill="#54436B"/>
<path d="M451.004 246.346C459.059 247.161 470.916 249.062 477.795 243.811C477.976 243.63 477.975 242.181 477.704 242.181C473.269 242.724 469.106 244.173 464.58 244.626C460.055 244.988 455.439 244.988 450.913 245.35C450.823 245.35 450.823 246.255 451.004 246.346Z" fill="#54436B"/>
<path d="M438.876 244.626C445.121 248.247 452.995 253.498 455.439 260.65C457.159 265.811 456.253 269.07 451.456 270.79C449.013 271.696 446.298 271.967 443.673 272.058C439.147 272.239 433.807 271.967 429.463 270.519C426.386 269.432 425.933 267.802 424.756 265.086C423.67 262.551 422.403 262.28 419.688 262.008C419.416 262.008 419.416 263.638 419.688 263.728C421.86 264.905 423.399 265.63 424.394 267.893C424.937 269.161 425.3 270.428 426.205 271.514C427.924 273.687 431.002 274.321 433.626 274.774C439.6 275.86 448.198 276.222 453.629 273.054C458.154 270.428 457.521 264.181 456.344 259.745C454.081 251.325 446.569 246.074 438.785 242.996C438.785 242.996 438.514 244.444 438.876 244.626Z" fill="#54436B"/>
<path d="M431.183 260.198C429.372 255.49 438.785 253.317 441.32 250.963C441.501 250.782 441.41 249.514 441.229 249.605C438.152 250.601 434.622 252.321 432.269 254.584C430.549 256.305 429.553 259.292 431.092 261.465C431.183 261.556 431.273 260.469 431.183 260.198Z" fill="#54436B"/>
<path d="M431.092 264.996C431.816 265.539 432.54 266.173 432.993 266.988C434.169 268.708 433.717 270.7 432.993 272.42C432.902 272.691 433.083 273.687 433.174 273.597C435.165 270.337 434.169 266.082 431.092 263.909C431.092 263.909 430.911 264.815 431.092 264.996Z" fill="#54436B"/>
<path d="M441.682 264.996C443.13 267.259 443.944 270.337 442.496 272.782C442.406 272.963 442.406 274.049 442.587 273.959C443.944 273.054 443.763 270.7 443.673 269.342C443.492 267.44 442.858 265.539 441.772 263.909C441.682 263.909 441.501 264.724 441.682 264.996Z" fill="#54436B"/>
<path d="M447.384 265.358C448.922 267.259 450.461 269.794 448.56 271.967C448.379 272.148 448.56 273.325 448.651 273.235C451.638 270.971 449.375 266.535 447.384 264.453C447.384 264.362 447.203 265.177 447.384 265.358Z" fill="#54436B"/>
<path d="M399.595 264.905C403.215 266.173 407.017 266.626 410.818 266.716C413.624 266.807 418.511 267.169 420.322 264.453C420.503 264.272 420.593 262.733 420.231 262.733C418.783 262.551 417.244 263.457 415.796 263.728C413.986 264.091 412.085 264.091 410.185 264.181C406.655 264.181 402.944 263.909 399.505 263.185C399.324 263.185 399.233 264.815 399.595 264.905Z" fill="#54436B"/>
<path d="M376.787 250.963C368.913 251.687 362.215 258.93 364.568 266.897C366.831 274.502 380.317 280.658 386.2 273.778C386.381 273.597 386.29 272.058 386.109 272.148C380.317 274.955 372.805 272.782 368.098 268.617C360.043 261.556 371.356 255.942 376.787 252.774C377.149 252.683 377.149 250.963 376.787 250.963Z" fill="#54436B"/>
<path d="M379.231 266.626C380.045 267.44 381.041 267.984 382.127 268.346C383.213 268.708 384.661 269.16 385.747 268.798C386.019 268.708 385.928 267.531 385.747 267.44C384.752 267.078 383.485 267.259 382.489 267.078C381.312 266.897 380.226 266.444 379.321 265.63C379.231 265.539 379.05 266.444 379.231 266.626Z" fill="#54436B"/>
<path d="M380.136 263.728C381.765 263.819 383.394 264.091 385.023 264.724C385.023 264.724 385.295 263.547 385.023 263.457C383.485 262.914 381.855 262.823 380.136 262.823C379.955 262.823 379.955 263.728 380.136 263.728Z" fill="#54436B"/>
<path d="M379.321 259.654C380.95 259.654 382.579 259.745 384.209 259.745C384.39 259.745 384.39 258.568 384.209 258.568C382.579 258.568 380.95 258.658 379.321 258.658C379.14 258.749 379.14 259.654 379.321 259.654Z" fill="#54436B"/>
<path d="M374.796 253.226C380.226 251.687 390.454 253.407 386.743 261.465C385.204 264.815 383.213 267.984 384.39 271.696C384.39 271.786 384.48 271.877 384.571 271.877H384.933C385.295 271.877 385.023 270.337 385.023 270.156C384.118 267.712 387.467 263.728 388.101 261.103C388.463 259.383 388.372 257.572 387.92 255.852C386.29 250.058 379.502 250.329 374.796 252.23C374.615 252.321 374.705 253.226 374.796 253.226Z" fill="#54436B"/>
<path d="M388.191 253.86C387.376 254.313 387.739 256.033 388.101 256.667C389.368 258.568 393.26 258.93 395.16 259.745C396.699 260.379 399.052 261.193 398.328 263.095C397.694 264.905 394.798 266.082 393.26 266.897C389.73 268.708 385.385 269.342 382.036 271.514C381.855 271.605 381.765 272.963 382.036 272.963C385.838 273.144 390.816 271.062 394.074 269.342C396.789 267.893 399.324 265.992 399.505 262.733C399.595 260.379 398.6 258.658 396.427 257.663C395.613 257.3 388.01 255.58 388.191 254.856C388.282 254.675 388.282 253.77 388.191 253.86Z" fill="#54436B"/>
<path d="M308.725 270.79C297.23 273.235 314.608 293.695 315.875 298.132C316.056 298.946 316.237 297.86 316.327 297.588C316.78 290.346 299.402 276.675 308.815 271.877C308.996 271.786 308.906 270.79 308.725 270.79Z" fill="#54436B"/>
<path d="M335.877 266.444C335.877 266.444 335.787 266.445 335.787 266.535C335.606 266.626 335.606 267.078 335.606 267.259C335.425 271.514 338.864 275.045 341.398 278.033C343.299 280.206 346.014 282.469 347.191 285.185C349.634 291.251 344.566 294.691 340.041 296.955C339.769 297.136 339.769 298.675 340.041 298.675C348.639 300.214 349.906 289.531 348.548 283.465C347.915 280.568 346.105 278.486 344.023 276.313C341.941 274.14 335.968 270.428 335.968 267.078C336.058 266.988 335.968 266.354 335.877 266.444Z" fill="#54436B"/>
<path d="M212.695 246.798C207.083 237.564 195.136 245.259 189.796 250.601C185.995 254.313 183.461 258.84 182.194 264C180.655 270.337 180.655 276.856 178.302 282.922C176.401 287.72 173.867 295.144 180.926 296.774C189.887 298.947 191.878 291.251 191.788 284.099C191.788 283.646 191.516 283.193 191.516 283.918C191.335 287.449 191.154 291.885 187.805 293.786C185.271 295.235 180.202 294.872 178.03 292.79C175.586 290.436 178.483 286.091 179.388 283.556C180.655 279.934 181.108 276.132 181.651 272.329C183.099 262.733 186.9 255.49 194.774 249.696C199.571 246.074 208.532 242.724 212.695 248.971C212.604 249.062 213.057 247.342 212.695 246.798Z" fill="#54436B"/>
<path d="M189.163 294.148C188.71 293.605 188.529 293.333 187.896 292.971C187.805 292.971 187.715 294.329 187.896 294.601C191.878 298.494 200.476 302.206 203.644 295.506C205.816 290.979 203.282 285.095 201.381 281.021C201.291 280.749 201.2 281.926 201.291 282.198C202.739 286.905 206.721 294.963 199.571 296.955C195.589 298.041 190.973 295.325 187.986 293.062V294.691C188.529 294.691 188.801 294.872 189.163 295.144C189.163 295.144 189.253 294.329 189.163 294.148Z" fill="#54436B"/>
<path d="M203.735 294.239C205.273 299.309 213.781 300.757 216.587 296.049C219.393 291.432 216.768 282.016 212.604 278.848C212.423 278.757 212.423 279.934 212.514 280.115C215.139 284.461 220.841 293.695 213.419 296.321C210.251 297.407 205.002 296.774 203.735 293.243C203.825 292.971 203.644 294.058 203.735 294.239Z" fill="#54436B"/>
<path d="M215.953 295.053C219.936 297.498 227.176 297.951 227.538 291.885C227.9 286.634 223.556 281.111 220.207 277.49C220.117 277.399 219.936 278.757 220.117 279.029C222.017 281.926 229.077 289.259 226.271 292.881C224.009 295.778 218.669 294.872 215.863 293.424C215.953 293.333 215.682 294.782 215.953 295.053Z" fill="#54436B"/>
<path d="M223.647 273.597C224.733 270.519 228.625 269.342 231.611 269.704C231.883 269.704 231.973 267.44 231.521 267.35C227.719 266.988 224.371 268.979 223.466 272.782C223.466 272.963 223.556 273.778 223.647 273.597Z" fill="#54436B"/>
<path d="M227.448 284.914C230.435 285.728 234.87 285.547 236.77 282.741C236.861 282.56 236.951 281.111 236.68 281.111C235.141 281.292 233.783 282.198 232.245 282.56C230.616 282.922 228.987 282.831 227.357 283.193C227.086 283.374 227.086 284.823 227.448 284.914Z" fill="#54436B"/>
<path d="M181.017 294.691C180.293 295.416 179.931 296.412 179.388 297.317C178.754 298.313 178.03 299.218 177.306 300.033C177.035 300.305 176.944 302.477 177.487 302.568C180.112 302.839 182.646 301.029 183.732 298.584C183.823 298.403 183.732 297.136 183.642 297.226C182.646 297.77 182.013 298.856 180.927 299.399C179.84 300.033 178.664 300.214 177.397 299.942C177.487 300.757 177.487 301.663 177.578 302.477C179.297 300.848 180.565 298.313 181.289 296.049C181.289 295.959 181.198 294.51 181.017 294.691Z" fill="#54436B"/>
<path d="M195.227 299.49C195.317 300.576 195.136 301.572 194.865 302.568C194.774 302.84 194.684 305.012 195.046 304.922C197.671 304.288 199.119 301.572 198.485 298.947C198.485 298.765 198.395 298.584 198.214 298.856C197.852 299.58 197.852 300.305 197.309 300.938C196.675 301.663 195.86 302.025 194.955 302.387L195.227 304.56C195.679 302.658 195.86 300.667 195.589 298.675C195.589 298.494 195.498 298.132 195.317 298.222C195.046 298.494 195.136 299.309 195.227 299.49Z" fill="#54436B"/>
<path d="M209.618 299.58C209.256 301.029 208.894 302.296 208.079 303.564C207.898 303.835 207.898 306.189 208.17 306.008C211.156 304.922 212.876 302.025 212.785 298.856C212.785 298.765 212.695 297.951 212.514 298.222C211.971 299.309 211.971 300.395 211.156 301.391C210.342 302.387 209.256 303.021 208.079 303.473C208.079 304.288 208.17 305.103 208.17 305.918C209.165 304.107 209.889 302.206 209.799 300.123C209.889 299.942 209.708 298.856 209.618 299.58Z" fill="#54436B"/>
<path d="M224.823 296.683H224.371C224.19 296.683 224.28 297.589 224.371 297.589H224.823C225.004 297.589 225.004 296.683 224.823 296.683Z" fill="#54436B"/>
<path d="M223.194 296.502C222.379 296.321 221.565 296.412 220.66 296.502C220.388 296.502 220.569 297.588 220.569 297.679C220.75 298.675 221.022 299.761 221.474 300.757C221.474 300.848 221.565 300.938 221.655 300.848C222.56 299.852 223.375 298.584 223.737 297.317C223.828 297.045 223.828 296.683 223.737 296.412C223.737 296.321 223.647 295.868 223.556 295.959C223.194 296.412 222.922 296.955 222.651 297.407L221.565 299.037C221.655 299.037 221.655 299.128 221.746 299.128C221.384 298.403 221.112 297.498 220.931 296.683C220.931 297.045 220.841 297.498 220.841 297.86C221.655 297.77 222.47 297.588 223.284 297.679C223.375 297.77 223.375 296.593 223.194 296.502Z" fill="#54436B"/>
<path d="M17.3776 273.144C17.5586 281.745 4.16335 284.551 6.69758 294.329C8.32674 300.757 21.9935 303.835 25.1613 297.407C25.2518 297.226 25.1613 295.959 25.0708 296.049C22.3556 298.675 17.8301 298.313 14.4813 297.407C12.3996 296.864 10.1369 295.959 8.59826 294.42C6.51657 292.337 7.78369 290.074 9.32233 288.082C12.8522 283.374 18.6447 279.481 17.7396 272.872C17.4681 272.239 17.3776 272.872 17.3776 273.144Z" fill="#54436B"/>
<path d="M24.7088 293.967C25.0708 293.424 25.3423 293.062 25.6138 292.519C25.5233 292.066 25.4328 291.704 25.3423 291.251C24.5277 294.51 20.9074 300.214 24.0752 303.292C28.1481 307.185 34.4837 303.111 36.4749 299.037C36.5654 298.765 36.3844 297.77 36.2938 297.77C34.2122 300.576 30.5918 303.111 26.881 302.477C24.1657 302.025 23.0796 300.395 23.8942 297.77C24.4372 295.959 25.1613 294.239 25.6138 292.337C25.7043 292.066 25.4328 290.708 25.3423 291.07C25.1613 291.704 24.8898 292.247 24.5277 292.79C24.4372 293.062 24.6182 293.967 24.7088 293.967Z" fill="#54436B"/>
<path d="M33.4882 299.309C34.6648 297.498 34.5743 295.235 34.3933 293.152C34.3933 292.609 34.1217 292.609 34.1217 293.152C34.1217 294.963 34.3933 296.683 33.3977 298.313C33.3071 298.584 33.4882 299.309 33.4882 299.309Z" fill="#54436B"/>
<path d="M32.9451 300.757C33.4881 304.831 39.8237 305.284 42.8105 303.745C46.8834 301.663 46.6119 295.778 46.1593 291.885C46.1593 291.523 45.9783 291.07 45.8878 291.704C45.4352 295.687 46.3403 300.486 41.3624 301.753C38.6471 302.477 34.8457 302.387 33.0356 300.033C32.9451 299.942 32.9451 300.667 32.9451 300.757Z" fill="#54436B"/>
<path d="M45.5257 298.313C45.0732 301.3 46.4308 303.202 49.6891 302.839C54.3051 302.387 57.6539 299.399 58.2874 294.872C59.0115 289.078 57.4729 283.012 55.3007 277.671C53.762 273.778 51.9518 269.885 49.3271 266.625C46.4308 263.004 44.9827 259.202 42.72 255.218C42.72 255.218 42.539 256.214 42.6295 256.486C44.4396 261.103 45.7068 264.634 48.7841 268.527C52.1329 272.691 54.4861 277.671 56.1152 282.741C57.9254 288.354 59.5546 295.959 53.581 299.128C51.9519 299.942 45.8878 302.387 45.7973 298.765C45.7973 298.675 45.6163 297.77 45.5257 298.313Z" fill="#54436B"/>
<path d="M57.9254 280.568C59.1925 279.391 60.5501 278.305 61.9983 277.309C63.4464 276.313 65.0755 275.498 66.3427 274.321C66.5237 274.14 66.4332 272.782 66.2522 272.782C64.7135 273.144 63.2654 274.502 62.0888 275.407C60.6406 276.584 59.1925 277.852 57.8349 279.119C57.5633 279.481 57.8349 280.658 57.9254 280.568Z" fill="#54436B"/>
<path d="M9.41281 298.856C9.14129 300.848 9.86535 302.749 8.14569 304.288C7.69315 304.65 8.14569 307.095 8.32671 306.914C10.4989 305.284 9.95586 301.3 9.59383 298.947C9.59383 298.765 9.41281 298.494 9.41281 298.856Z" fill="#54436B"/>
<path d="M11.5851 305.012C12.2186 305.012 12.8522 304.831 13.3047 304.379C13.8478 303.926 14.2098 303.202 14.2098 302.477C14.2098 302.296 14.3003 301.572 14.0288 301.481C13.9383 301.481 13.4857 302.387 13.3952 302.477C12.9427 303.021 12.2186 303.383 11.4945 303.654C11.3135 303.745 11.404 305.012 11.5851 305.012Z" fill="#54436B"/>
<path d="M26.6999 304.741C26.4284 305.012 26.2474 305.465 26.0664 305.827C25.7948 306.28 25.3423 306.642 24.9803 306.914C24.1657 307.638 23.1701 308.272 22.265 308.905C21.903 309.177 21.9935 311.531 22.3555 311.44C24.5277 310.988 26.6999 310.535 26.9715 308C26.9715 307.909 26.9715 306.642 26.7904 306.732C26.5189 306.914 26.4284 307.276 26.1569 307.457C25.8854 307.819 25.4328 308 25.0708 308.181C24.1657 308.543 23.1701 308.634 22.265 308.815C22.3555 309.63 22.3555 310.535 22.446 311.35C24.4372 309.992 26.7904 308.453 27.062 305.827C26.881 305.827 26.881 304.56 26.6999 304.741Z" fill="#54436B"/>
<path d="M37.9231 304.288C37.9231 305.646 36.7465 306.823 35.7509 307.638C35.4793 307.819 35.5698 309.72 35.8414 309.72C37.6515 309.63 39.2807 308.543 40.2763 307.004C40.3668 306.823 40.3668 305.646 40.1858 305.737C38.6471 306.37 37.561 307.547 35.7509 307.547C35.7509 308.272 35.8414 308.905 35.8414 309.63C37.4705 308.272 38.2851 306.37 38.1946 304.198C38.1946 304.107 38.1946 303.383 38.0136 303.383C37.8326 303.473 37.9231 304.198 37.9231 304.288Z" fill="#54436B"/>
<path d="M50.1417 303.021C50.1417 304.198 49.5082 305.284 48.7841 306.099C48.6031 306.28 48.6031 308.091 48.8746 308C50.4133 307.547 52.1329 306.914 53.3095 305.737C53.4906 305.556 53.4906 304.288 53.219 304.288C52.495 304.379 51.7709 304.741 51.0468 305.103C50.3228 305.465 49.5987 305.737 48.7841 306.008C48.7841 306.642 48.8746 307.276 48.8746 307.909C50.0512 306.37 50.5038 304.65 50.4133 302.658C50.4133 302.025 50.1417 302.477 50.1417 303.021Z" fill="#54436B"/>
<path d="M56.2058 251.778C63.356 249.967 69.8726 251.054 76.7512 253.317C82.7248 255.309 88.6078 257.119 94.0384 260.379C94.2194 260.469 94.3099 259.111 94.1289 258.84C89.875 254.675 83.5394 253.226 78.0183 251.597C70.5061 249.424 63.899 248.156 56.2963 250.691C55.9343 250.872 56.1153 251.778 56.2058 251.778Z" fill="#54436B"/>
<path d="M98.2922 237.473C105.804 237.202 112.14 242.091 117.118 247.251C122.458 252.774 124.54 258.568 126.802 265.72C126.893 266.082 126.983 264.905 126.983 264.724C125.083 251.687 112.864 235.391 98.2017 236.387C98.1112 236.477 98.1112 237.473 98.2922 237.473Z" fill="#54436B"/>
<path d="M129.88 264.815C131.509 259.835 134.315 255.309 138.116 251.687C142.189 247.613 146.805 245.893 152.145 244.173C152.416 244.082 152.326 242.453 152.145 242.453C141.193 243.086 132.776 254.313 129.789 263.91C129.699 264.091 129.789 264.996 129.88 264.815Z" fill="#54436B"/>
<path d="M158.842 258.115C162.644 259.021 166.536 258.115 170.337 259.654C174.229 261.284 177.125 265.992 181.198 266.897C181.47 266.988 181.289 265.449 181.198 265.268C175.949 258.568 167.26 254.856 158.842 257.119C158.661 257.119 158.661 258.025 158.842 258.115Z" fill="#54436B"/>
<path d="M255.868 182.79C259.307 184.963 262.746 187.407 265.552 190.395C267.996 193.021 268.629 196.733 270.892 199.449C270.982 199.539 271.073 198.453 270.983 198.272C269.353 195.284 268.267 191.753 266.005 189.128C263.289 186.049 259.488 183.514 255.958 181.432C255.777 181.251 255.596 182.609 255.868 182.79Z" fill="#54436B"/>
<path d="M281.21 181.613C270.711 181.432 269.806 195.465 277.771 199.901C277.771 199.901 277.952 198.815 277.771 198.634C274.693 195.918 271.616 191.844 273.788 187.588C275.236 184.782 278.404 183.514 281.21 182.609C281.391 182.519 281.301 181.613 281.21 181.613Z" fill="#54436B"/>
<path d="M315.06 195.375C318.68 201.621 316.87 207.416 310.806 210.584C310.625 210.675 310.716 211.852 310.806 211.852C318.59 210.041 318.952 199.992 315.06 194.469C315.06 194.379 314.879 195.193 315.06 195.375Z" fill="#54436B"/>
<path d="M286.731 212.576C290.08 213.481 293.519 214.84 297.049 214.84C297.23 214.84 297.23 213.663 297.049 213.572C293.61 212.848 290.17 212.305 286.731 211.58C286.64 211.58 286.55 212.486 286.731 212.576Z" fill="#54436B"/>
<path d="M303.023 201.35C309.539 207.235 317.051 212.214 322.572 219.185C328.727 226.971 333.886 237.292 335.153 247.161C335.244 247.885 335.425 246.798 335.334 246.527C334.248 237.654 330.085 229.325 325.288 221.811C319.676 212.938 310.897 207.325 303.113 200.535C303.023 200.444 302.842 201.169 303.023 201.35Z" fill="#54436B"/>
<path d="M306.462 200.897C313.612 206.42 321.486 211.128 328.003 217.465C334.972 224.255 340.221 232.675 345.924 240.461C345.924 240.461 346.105 239.646 345.924 239.374C340.221 231.588 334.972 223.259 328.003 216.469C321.486 210.132 313.612 205.514 306.462 199.992C306.462 199.992 306.281 200.807 306.462 200.897Z" fill="#54436B"/>
<path d="M313.34 203.16C322.753 204.7 330.447 212.123 336.963 218.642C344.023 225.704 349.906 234.033 357.961 240.099C358.052 240.189 358.233 239.103 357.961 238.922C349.634 232.675 343.48 223.893 336.058 216.65C329.722 210.494 322.391 203.613 313.34 202.165C313.25 202.165 313.159 203.07 313.34 203.16Z" fill="#54436B"/>
<path d="M318.047 201.35C321.486 202.255 324.835 203.432 327.912 205.243C327.912 205.243 328.093 204.428 327.912 204.337C324.835 202.617 321.486 201.44 318.047 200.444C317.956 200.444 317.866 201.35 318.047 201.35Z" fill="#54436B"/>
<path d="M270.439 200.444C254.419 205.514 240.934 215.383 228.353 226.247C228.172 226.428 228.353 227.152 228.443 227.152C241.024 216.379 254.51 206.51 270.439 201.44C270.711 201.35 270.53 200.444 270.439 200.444Z" fill="#54436B"/>
<path d="M285.011 199.177C271.888 194.831 256.863 203.161 246.817 211.128C246.636 211.309 246.817 212.123 246.907 212.123C256.863 204.337 272.069 196.099 285.011 200.082C285.102 200.082 285.283 199.268 285.011 199.177Z" fill="#54436B"/>
<path d="M283.292 191.844C272.793 191.934 262.384 193.383 252.066 195.103C243.92 196.461 235.322 198.181 228.805 203.432C228.624 203.613 228.805 204.428 228.896 204.337C235.956 198.905 244.825 197.276 253.424 196.008C263.38 194.469 273.245 193.021 283.382 192.749C283.473 192.84 283.473 191.844 283.292 191.844Z" fill="#54436B"/>
<path d="M270.439 195.284C260.484 196.642 251.704 202.165 241.748 203.432C241.567 203.432 241.658 204.428 241.748 204.428C251.704 203.161 260.484 197.547 270.439 196.28C270.62 196.189 270.53 195.284 270.439 195.284Z" fill="#54436B"/>
<path d="M284.197 189.761C272.793 185.144 259.488 184.51 247.269 185.416C247.088 185.416 247.179 186.412 247.269 186.412C259.488 186.14 272.521 186.412 284.197 190.667C284.287 190.667 284.378 189.852 284.197 189.761Z" fill="#54436B"/>
<path d="M281.572 203.885C270.53 204.156 261.117 209.226 253.243 216.741C253.062 216.922 253.243 217.737 253.333 217.646C261.298 210.222 270.53 205.062 281.572 204.79C281.753 204.79 281.753 203.885 281.572 203.885Z" fill="#54436B"/>
<path d="M315.06 296.593C313.612 298.856 312.888 301.844 314.155 304.469C316.146 308.453 322.21 308.996 326.012 309.539C333.886 310.716 344.928 310.444 344.837 300.033C344.837 299.761 344.656 299.037 344.566 299.671C343.932 306.823 334.701 307.185 329.18 306.914C326.464 306.733 323.749 306.37 321.034 305.827C316.418 304.831 312.888 302.93 315.06 297.407C315.151 297.226 315.06 296.593 315.06 296.593Z" fill="#54436B"/>
<path d="M321.124 306.189C324.021 304.016 324.654 299.58 324.654 296.14C324.654 295.959 324.473 294.963 324.383 295.597C323.749 298.947 323.568 302.477 321.034 305.012C320.853 305.193 321.034 306.28 321.124 306.189Z" fill="#54436B"/>
<path d="M329.632 307.457C332.166 306.733 332.438 304.016 332.347 301.753C332.347 301.119 332.076 301.029 332.076 301.753C332.076 303.654 331.623 305.646 329.632 306.37C329.451 306.461 329.541 307.457 329.632 307.457Z" fill="#54436B"/>
<path d="M337.054 307.819C337.416 305.646 338.049 303.473 337.959 301.3C337.959 301.119 337.778 300.214 337.687 300.848C337.325 302.84 337.144 304.831 336.782 306.823C336.782 307.004 336.963 308.543 337.054 307.819Z" fill="#54436B"/>
<path d="M239.848 292.337C239.938 297.589 238.037 303.021 241.386 307.728C244.735 312.346 250.98 313.794 256.411 313.613C262.203 313.432 268.539 311.984 271.344 306.37C273.879 301.3 273.969 295.235 274.422 289.712C274.422 289.531 274.241 288.263 274.15 288.897C273.336 294.239 273.517 300.395 270.439 305.012C267.724 309.086 262.746 310.263 258.13 310.535C253.967 310.807 249.622 310.354 245.912 308.453C241.477 306.189 240.3 302.477 240.119 297.407C240.029 295.687 240.3 293.967 240.119 292.247C240.029 291.432 239.848 291.794 239.848 292.337Z" fill="#54436B"/>
<path d="M245.188 309.992C247.269 307.366 248.355 304.107 248.717 300.757C248.717 300.486 248.536 299.399 248.446 300.123C247.993 303.202 246.907 306.37 245.097 308.905C244.916 309.177 245.188 309.992 245.188 309.992Z" fill="#54436B"/>
<path d="M252.519 311.984C253.695 309.63 254.872 307.276 255.144 304.56C255.144 304.379 255.053 303.383 254.963 304.016C254.6 306.642 253.514 308.815 252.428 311.169C252.338 311.35 252.428 312.165 252.519 311.984Z" fill="#54436B"/>
<path d="M261.117 310.444C261.117 307.819 261.208 305.193 261.117 302.568C261.117 302.115 260.846 301.663 260.846 302.387V310.263C260.936 310.716 261.117 311.169 261.117 310.444Z" fill="#54436B"/>
<path d="M275.598 289.802C280.576 291.07 286.007 288.988 291.166 290.165C296.415 291.342 300.76 293.333 305.647 289.984C305.828 289.802 305.738 288.444 305.557 288.444C300.126 289.712 295.601 287.811 290.261 286.815C285.735 286 279.671 286.453 275.508 288.625C275.417 288.897 275.417 289.802 275.598 289.802Z" fill="#54436B"/>
<path d="M349.363 281.292C358.052 281.926 366.288 280.658 372.171 273.597C372.352 273.416 372.171 272.239 372.081 272.329C365.292 277.671 357.78 279.3 349.363 280.115C349.182 280.206 349.182 281.292 349.363 281.292Z" fill="#54436B"/>
<path d="M360.857 238.65C366.922 241.457 373.257 243.177 378.326 247.704C383.213 252.049 388.463 255.671 393.622 259.654C393.712 259.745 393.893 258.568 393.622 258.387C388.734 253.136 382.851 248.428 377.239 243.901C372.443 239.918 366.378 238.741 360.676 236.387C360.676 236.387 360.314 238.379 360.857 238.65Z" fill="#54436B"/>
</g>
<defs>
<linearGradient id="paint0_linear" x1="339.353" y1="228.058" x2="437.5" y2="228.058" gradientUnits="userSpaceOnUse">
<stop stop-color="white"/>
<stop offset="1"/>
</linearGradient>
<linearGradient id="paint1_linear" x1="425.897" y1="229.597" x2="479.297" y2="229.597" gradientUnits="userSpaceOnUse">
<stop stop-color="white"/>
<stop offset="1"/>
</linearGradient>
<linearGradient id="paint2_linear" x1="353.635" y1="246.699" x2="372.343" y2="246.699" gradientUnits="userSpaceOnUse">
<stop stop-color="white"/>
<stop offset="1"/>
</linearGradient>
<linearGradient id="paint3_linear" x1="359.581" y1="261.709" x2="369.999" y2="261.709" gradientUnits="userSpaceOnUse">
<stop stop-color="white"/>
<stop offset="1"/>
</linearGradient>
<linearGradient id="paint4_linear" x1="306.091" y1="265.059" x2="339.932" y2="265.059" gradientUnits="userSpaceOnUse">
<stop stop-color="white"/>
<stop offset="1"/>
</linearGradient>
<linearGradient id="paint5_linear" x1="255.714" y1="276.267" x2="267.96" y2="276.267" gradientUnits="userSpaceOnUse">
<stop stop-color="white"/>
<stop offset="1"/>
</linearGradient>
<linearGradient id="paint6_linear" x1="234.833" y1="193.455" x2="275.96" y2="193.455" gradientUnits="userSpaceOnUse">
<stop stop-color="white"/>
<stop offset="1"/>
</linearGradient>
<linearGradient id="paint7_linear" x1="270.095" y1="128.741" x2="282.341" y2="128.741" gradientUnits="userSpaceOnUse">
<stop stop-color="white"/>
<stop offset="1"/>
</linearGradient>
<linearGradient id="paint8_linear" x1="284.93" y1="135.766" x2="290.605" y2="135.766" gradientUnits="userSpaceOnUse">
<stop stop-color="white"/>
<stop offset="1"/>
</linearGradient>
<linearGradient id="paint9_linear" x1="327.976" y1="144.403" x2="360.115" y2="144.403" gradientUnits="userSpaceOnUse">
<stop stop-color="white"/>
<stop offset="1"/>
</linearGradient>
<linearGradient id="paint10_linear" x1="299.755" y1="137.405" x2="314.87" y2="137.405" gradientUnits="userSpaceOnUse">
<stop stop-color="white"/>
<stop offset="1"/>
</linearGradient>
<linearGradient id="paint11_linear" x1="311.458" y1="183.089" x2="338.239" y2="183.089" gradientUnits="userSpaceOnUse">
<stop stop-color="white"/>
<stop offset="1"/>
</linearGradient>
<linearGradient id="paint12_linear" x1="268.693" y1="173.175" x2="288.623" y2="173.175" gradientUnits="userSpaceOnUse">
<stop stop-color="white"/>
<stop offset="1"/>
</linearGradient>
<linearGradient id="paint13_linear" x1="260.945" y1="231.57" x2="309.811" y2="231.57" gradientUnits="userSpaceOnUse">
<stop stop-color="white"/>
<stop offset="1"/>
</linearGradient>
<linearGradient id="paint14_linear" x1="328.184" y1="191.5" x2="349.2" y2="191.5" gradientUnits="userSpaceOnUse">
<stop stop-color="white"/>
<stop offset="1"/>
</linearGradient>
<linearGradient id="paint15_linear" x1="422.584" y1="255.028" x2="435.717" y2="255.028" gradientUnits="userSpaceOnUse">
<stop stop-color="white"/>
<stop offset="1"/>
</linearGradient>
<linearGradient id="paint16_linear" x1="312.68" y1="287.349" x2="342.312" y2="287.349" gradientUnits="userSpaceOnUse">
<stop stop-color="white"/>
<stop offset="1"/>
</linearGradient>
<linearGradient id="paint17_linear" x1="240.943" y1="290.165" x2="263.172" y2="290.165" gradientUnits="userSpaceOnUse">
<stop stop-color="white"/>
<stop offset="1"/>
</linearGradient>
<linearGradient id="paint18_linear" x1="192.466" y1="98.321" x2="231.376" y2="98.321" gradientUnits="userSpaceOnUse">
<stop stop-color="#CBBBA0"/>
<stop offset="1" stop-color="#634E42"/>
</linearGradient>
<linearGradient id="paint19_linear" x1="229.611" y1="92.1736" x2="244.427" y2="92.1736" gradientUnits="userSpaceOnUse">
<stop stop-color="#CBBBA0"/>
<stop offset="1" stop-color="#634E42"/>
</linearGradient>
<linearGradient id="paint20_linear" x1="88.4367" y1="44.8438" x2="121.707" y2="44.8438" gradientUnits="userSpaceOnUse">
<stop stop-color="#CBBBA0"/>
<stop offset="1" stop-color="#634E42"/>
</linearGradient>
<linearGradient id="paint21_linear" x1="90.8977" y1="18.872" x2="102.428" y2="18.872" gradientUnits="userSpaceOnUse">
<stop stop-color="#CBBBA0"/>
<stop offset="1" stop-color="#634E42"/>
</linearGradient>
<linearGradient id="paint22_linear" x1="124.368" y1="127.691" x2="141.021" y2="127.691" gradientUnits="userSpaceOnUse">
<stop stop-color="#CBBBA0"/>
<stop offset="1" stop-color="#634E42"/>
</linearGradient>
<linearGradient id="paint23_linear" x1="94.1288" y1="180.011" x2="146.253" y2="180.011" gradientUnits="userSpaceOnUse">
<stop stop-color="#CBBBA0"/>
<stop offset="1" stop-color="#634E42"/>
</linearGradient>
<linearGradient id="paint24_linear" x1="140.56" y1="145.417" x2="180.266" y2="145.417" gradientUnits="userSpaceOnUse">
<stop stop-color="#CBBBA0"/>
<stop offset="1" stop-color="#634E42"/>
</linearGradient>
<linearGradient id="paint25_linear" x1="77.0825" y1="103.21" x2="91.2869" y2="103.21" gradientUnits="userSpaceOnUse">
<stop stop-color="#CBBBA0"/>
<stop offset="1" stop-color="#634E42"/>
</linearGradient>
<linearGradient id="paint26_linear" x1="22.1501" y1="224.454" x2="76.1602" y2="224.454" gradientUnits="userSpaceOnUse">
<stop stop-color="#CBBBA0"/>
<stop offset="1" stop-color="#634E42"/>
</linearGradient>
<linearGradient id="paint27_linear" x1="186.004" y1="223.685" x2="235.503" y2="223.685" gradientUnits="userSpaceOnUse">
<stop stop-color="#CBBBA0"/>
<stop offset="1" stop-color="#634E42"/>
</linearGradient>
<linearGradient id="paint28_linear" x1="187.579" y1="267.123" x2="212.677" y2="267.123" gradientUnits="userSpaceOnUse">
<stop stop-color="#CBBBA0"/>
<stop offset="1" stop-color="#634E42"/>
</linearGradient>
<linearGradient id="paint29_linear" x1="195.145" y1="186.185" x2="237.893" y2="186.185" gradientUnits="userSpaceOnUse">
<stop stop-color="#CBBBA0"/>
<stop offset="1" stop-color="#634E42"/>
</linearGradient>
<linearGradient id="paint30_linear" x1="76.7819" y1="254.847" x2="128.296" y2="254.847" gradientUnits="userSpaceOnUse">
<stop stop-color="#CBBBA0"/>
<stop offset="1" stop-color="#634E42"/>
</linearGradient>
<linearGradient id="paint31_linear" x1="129.264" y1="252.33" x2="175.94" y2="252.33" gradientUnits="userSpaceOnUse">
<stop stop-color="#CBBBA0"/>
<stop offset="1" stop-color="#634E42"/>
</linearGradient>
<linearGradient id="paint32_linear" x1="136.523" y1="84.7724" x2="150.126" y2="84.7724" gradientUnits="userSpaceOnUse">
<stop stop-color="#CBBBA0"/>
<stop offset="1" stop-color="#634E42"/>
</linearGradient>
<linearGradient id="paint33_linear" x1="138.36" y1="87.8995" x2="158.897" y2="87.8995" gradientUnits="userSpaceOnUse">
<stop stop-color="#CBBBA0"/>
<stop offset="1" stop-color="#634E42"/>
</linearGradient>
<linearGradient id="paint34_linear" x1="148.742" y1="93.586" x2="169.522" y2="93.586" gradientUnits="userSpaceOnUse">
<stop stop-color="#CBBBA0"/>
<stop offset="1" stop-color="#634E42"/>
</linearGradient>
<linearGradient id="paint35_linear" x1="89.9799" y1="97.6601" x2="121.091" y2="97.6601" gradientUnits="userSpaceOnUse">
<stop stop-color="#CBBBA0"/>
<stop offset="1" stop-color="#634E42"/>
</linearGradient>
<linearGradient id="paint36_linear" x1="90.8886" y1="137.007" x2="115.679" y2="137.007" gradientUnits="userSpaceOnUse">
<stop stop-color="white"/>
<stop offset="1"/>
</linearGradient>
<linearGradient id="paint37_linear" x1="95.2693" y1="148.287" x2="103.976" y2="148.287" gradientUnits="userSpaceOnUse">
<stop stop-color="white"/>
<stop offset="1"/>
</linearGradient>
<clipPath id="clip0">
<rect width="493" height="330" fill="white"/>
</clipPath>
</defs>
</svg>
